<svg width="100" height="100" viewBox="0 0 100 100" fill="none" xmlns="http://www.w3.org/2000/svg">
<path d="M78 13C77.7348 13 77.4804 13.1054 77.2929 13.2929C77.1054 13.4804 77 13.7348 77 14C77 14.2652 77.1054 14.5196 77.2929 14.7071C77.4804 14.8946 77.7348 15 78 15C78.2652 15 78.5196 14.8946 78.7071 14.7071C78.8946 14.5196 79 14.2652 79 14C79 13.7348 78.8946 13.4804 78.7071 13.2929C78.5196 13.1054 78.2652 13 78 13Z" fill="#9387FF"/>
<path d="M50 12C39.9218 12 30.2563 16.0036 23.1299 23.1299C16.0036 30.2563 12 39.9218 12 50C12 60.0782 16.0036 69.7437 23.1299 76.8701C30.2563 83.9964 39.9218 88 50 88C60.0782 88 69.7437 83.9964 76.8701 76.8701C83.9964 69.7437 88 60.0782 88 50C88 39.9218 83.9964 30.2563 76.8701 23.1299C69.7437 16.0036 60.0782 12 50 12V12Z" fill="#F1EFFF"/>
<path d="M84 12C82.9391 12 81.9217 12.4214 81.1716 13.1716C80.4214 13.9217 80 14.9391 80 16C80 17.0609 80.4214 18.0783 81.1716 18.8284C81.9217 19.5786 82.9391 20 84 20C85.0609 20 86.0783 19.5786 86.8284 18.8284C87.5786 18.0783 88 17.0609 88 16C88 14.9391 87.5786 13.9217 86.8284 13.1716C86.0783 12.4214 85.0609 12 84 12V12Z" fill="#9387FF"/>
<path d="M14 24C13.4696 24 12.9609 24.2107 12.5858 24.5858C12.2107 24.9609 12 25.4696 12 26C12 26.5304 12.2107 27.0391 12.5858 27.4142C12.9609 27.7893 13.4696 28 14 28C14.5304 28 15.0391 27.7893 15.4142 27.4142C15.7893 27.0391 16 26.5304 16 26C16 25.4696 15.7893 24.9609 15.4142 24.5858C15.0391 24.2107 14.5304 24 14 24Z" fill="#EAAA2E"/>
<path d="M78 75C77.4696 75 76.9609 75.2107 76.5858 75.5858C76.2107 75.9609 76 76.4696 76 77C76 77.5304 76.2107 78.0391 76.5858 78.4142C76.9609 78.7893 77.4696 79 78 79C78.5304 79 79.0391 78.7893 79.4142 78.4142C79.7893 78.0391 80 77.5304 80 77C80 76.4696 79.7893 75.9609 79.4142 75.5858C79.0391 75.2107 78.5304 75 78 75ZM17 74C15.9391 74 14.9217 74.4214 14.1716 75.1716C13.4214 75.9217 13 76.9391 13 78C13 79.0609 13.4214 80.0783 14.1716 80.8284C14.9217 81.5786 15.9391 82 17 82C18.0609 82 19.0783 81.5786 19.8284 80.8284C20.5786 80.0783 21 79.0609 21 78C21 76.9391 20.5786 75.9217 19.8284 75.1716C19.0783 74.4214 18.0609 74 17 74Z" fill="#9387FF"/>
<path d="M24 81C23.4696 81 22.9609 81.2107 22.5858 81.5858C22.2107 81.9609 22 82.4696 22 83C22 83.5304 22.2107 84.0391 22.5858 84.4142C22.9609 84.7893 23.4696 85 24 85C24.5304 85 25.0391 84.7893 25.4142 84.4142C25.7893 84.0391 26 83.5304 26 83C26 82.4696 25.7893 81.9609 25.4142 81.5858C25.0391 81.2107 24.5304 81 24 81Z" fill="#EAAA2E"/>
<path d="M66.483 76.034C66.1569 76.034 65.8341 76.0982 65.5328 76.223C65.2315 76.3478 64.9578 76.5307 64.7273 76.7613C64.4967 76.9918 64.3138 77.2655 64.189 77.5668C64.0642 77.868 64 78.1909 64 78.517C64 78.8431 64.0642 79.1659 64.189 79.4672C64.3138 79.7685 64.4967 80.0422 64.7273 80.2727C64.9578 80.5033 65.2315 80.6862 65.5328 80.811C65.8341 80.9358 66.1569 81 66.483 81C66.8091 81 67.132 80.9358 67.4332 80.811C67.7345 80.6862 68.0082 80.5033 68.2387 80.2727C68.4693 80.0422 68.6522 79.7685 68.777 79.4672C68.9018 79.1659 68.966 78.8431 68.966 78.517C68.966 78.1909 68.9018 77.868 68.777 77.5668C68.6522 77.2655 68.4693 76.9918 68.2387 76.7613C68.0082 76.5307 67.7345 76.3478 67.4332 76.223C67.132 76.0982 66.8091 76.034 66.483 76.034ZM16 47C15.7348 47 15.4804 47.1054 15.2929 47.2929C15.1054 47.4804 15 47.7348 15 48C15 48.2652 15.1054 48.5196 15.2929 48.7071C15.4804 48.8946 15.7348 49 16 49C16.2652 49 16.5196 48.8946 16.7071 48.7071C16.8946 48.5196 17 48.2652 17 48C17 47.7348 16.8946 47.4804 16.7071 47.2929C16.5196 47.1054 16.2652 47 16 47Z" fill="white"/>
<path d="M86 30C85.7348 30 85.4804 30.1054 85.2929 30.2929C85.1054 30.4804 85 30.7348 85 31C85 31.2652 85.1054 31.5196 85.2929 31.7071C85.4804 31.8946 85.7348 32 86 32C86.2652 32 86.5196 31.8946 86.7071 31.7071C86.8946 31.5196 87 31.2652 87 31C87 30.7348 86.8946 30.4804 86.7071 30.2929C86.5196 30.1054 86.2652 30 86 30Z" fill="#9387FF"/>
<path d="M80 64C79.4696 64 78.9609 64.2107 78.5858 64.5858C78.2107 64.9609 78 65.4696 78 66C78 66.5304 78.2107 67.0391 78.5858 67.4142C78.9609 67.7893 79.4696 68 80 68C80.5304 68 81.0391 67.7893 81.4142 67.4142C81.7893 67.0391 82 66.5304 82 66C82 65.4696 81.7893 64.9609 81.4142 64.5858C81.0391 64.2107 80.5304 64 80 64V64Z" fill="white"/>
<path d="M28.7002 29.2972C28.7002 27.3142 30.3462 25.6992 32.3682 25.6992H58.0832C58.7542 25.6992 59.3002 26.2452 59.3002 26.9162V54.7972L33.1472 54.7162L28.7012 57.2862V29.2972H28.7002Z" fill="#EDA851"/>
<path d="M58.083 26.4C58.368 26.4 58.6 26.632 58.6 26.917V54.096L33.338 54.017L32.96 54.016L32.633 54.205L29.4 56.073V29.298C29.4 27.7 30.732 26.4 32.368 26.4H58.083ZM58.083 25H32.368C29.956 25 28 26.924 28 29.298V58.5L33.333 55.417L60 55.5V26.917C60 25.858 59.142 25 58.083 25Z" fill="#252D36"/>
<path d="M29.4365 57.25H32.8745V26.375H32.3745C30.7525 26.375 29.4365 27.69 29.4365 29.313V57.25Z" fill="#E8BD86"/>
<path d="M32.0002 61.2992C30.1812 61.2992 28.7002 59.8192 28.7002 57.9992C28.7002 56.1792 30.1802 54.6992 32.0002 54.6992H58.7712C57.6842 56.8532 57.6922 59.0642 58.7942 61.2992H32.0002V61.2992Z" fill="#FDDBBC"/>
<path d="M57.716 55.4C57.116 57.103 57.125 58.856 57.743 60.6H32C30.566 60.6 29.4 59.433 29.4 58C29.4 56.567 30.566 55.4 32 55.4H57.716ZM60 54H32C29.791 54 28 55.791 28 58C28 60.209 29.791 62 32 62H60C58.287 59.361 58.156 56.694 60 54Z" fill="#252D36"/>
<path d="M32.5 33C32.224 33 32 32.776 32 32.5V29.5C32 29.224 32.224 29 32.5 29C32.776 29 33 29.224 33 29.5V32.5C33 32.776 32.776 33 32.5 33Z" fill="#252D36"/>
<path d="M32.5 53C32.224 53 32 52.776 32 52.5V34.5C32 34.224 32.224 34 32.5 34C32.776 34 33 34.224 33 34.5V52.5C33 52.776 32.776 53 32.5 53Z" fill="#252D36"/>
<path d="M42.7002 39.2972C42.7002 37.3142 44.3462 35.6992 46.3682 35.6992H72.2112C72.8122 35.6992 73.3002 36.1872 73.3002 36.7882V63.7052C73.3002 64.3052 72.8122 64.7932 72.2122 64.7932L47.1472 64.7162L42.7012 67.2862L42.7002 39.2972Z" fill="#BFC3FD"/>
<path d="M72.211 36.4C72.425 36.4 72.6 36.575 72.6 36.789V63.706C72.6 63.92 72.426 64.095 72.21 64.095L47.338 64.017L46.96 64.016L46.633 64.205L43.4 66.073V39.298C43.4 37.7 44.732 36.4 46.368 36.4H72.211ZM72.211 35H46.368C43.956 35 42 36.924 42 39.298V68.5L47.333 65.417L72.205 65.495C72.207 65.495 72.209 65.495 72.211 65.495C73.198 65.495 74 64.694 74 63.706V36.789C74 35.801 73.199 35 72.211 35Z" fill="#252D36"/>
<path d="M43.4365 67.25H46.8745V36.375H46.3745C44.7525 36.375 43.4365 37.69 43.4365 39.313V67.25Z" fill="#D6D8FF"/>
<path d="M46.0002 71.2992C44.1812 71.2992 42.7002 69.8192 42.7002 67.9992C42.7002 66.1792 44.1802 64.6992 46.0002 64.6992H72.7722C71.7822 66.6652 71.7022 68.6872 72.5382 70.7272C72.6092 70.9012 72.5432 71.0412 72.4972 71.1092C72.4592 71.1672 72.3492 71.2982 72.1432 71.2982H46.0002V71.2992Z" fill="#FDDBBC"/>
<path d="M71.709 65.4C71.102 67.103 71.111 68.844 71.739 70.6H46C44.566 70.6 43.4 69.433 43.4 68C43.4 66.567 44.566 65.4 46 65.4H71.709V65.4ZM74 64H46C43.791 64 42 65.791 42 68C42 70.209 43.791 72 46 72H72.143C72.936 72 73.485 71.197 73.185 70.463C72.31 68.327 72.513 66.172 74 64Z" fill="#252D36"/>
<path d="M46.5 43C46.224 43 46 42.776 46 42.5V39.5C46 39.224 46.224 39 46.5 39C46.776 39 47 39.224 47 39.5V42.5C47 42.776 46.776 43 46.5 43Z" fill="#252D36"/>
<path d="M46.5 63C46.224 63 46 62.776 46 62.5V48.5C46 48.224 46.224 48 46.5 48C46.776 48 47 48.224 47 48.5V62.5C47 62.776 46.776 63 46.5 63Z" fill="#252D36"/>
<path d="M46.5 46.719C46.224 46.719 46 46.495 46 46.219V44.5C46 44.224 46.224 44 46.5 44C46.776 44 47 44.224 47 44.5V46.219C47 46.495 46.776 46.719 46.5 46.719Z" fill="#252D36"/>
<path d="M64.5 50.75H52.5C52.362 50.75 52.25 50.638 52.25 50.5V43.5C52.25 43.362 52.362 43.25 52.5 43.25H53.344C53.482 43.25 53.594 43.362 53.594 43.5C53.594 43.638 53.482 43.75 53.344 43.75H52.75V50.25H64.5C64.638 50.25 64.75 50.362 64.75 50.5C64.75 50.638 64.638 50.75 64.5 50.75Z" fill="#252D36"/>
<path d="M67.5 50.75H66.094C65.956 50.75 65.844 50.638 65.844 50.5C65.844 50.362 65.956 50.25 66.094 50.25H67.25V43.75H57.625C57.487 43.75 57.375 43.638 57.375 43.5C57.375 43.362 57.487 43.25 57.625 43.25H67.5C67.638 43.25 67.75 43.362 67.75 43.5V50.5C67.75 50.638 67.638 50.75 67.5 50.75Z" fill="#252D36"/>
<path d="M56.5 43.75H54.5C54.362 43.75 54.25 43.638 54.25 43.5C54.25 43.362 54.362 43.25 54.5 43.25H56.5C56.638 43.25 56.75 43.362 56.75 43.5C56.75 43.638 56.638 43.75 56.5 43.75Z" fill="#252D36"/>
</svg>
