<svg width="101" height="100" viewBox="0 0 101 100" fill="none" xmlns="http://www.w3.org/2000/svg">
<path d="M77.5 12C77.2348 12 76.9804 12.1054 76.7929 12.2929C76.6054 12.4804 76.5 12.7348 76.5 13C76.5 13.2652 76.6054 13.5196 76.7929 13.7071C76.9804 13.8946 77.2348 14 77.5 14C77.7652 14 78.0196 13.8946 78.2071 13.7071C78.3946 13.5196 78.5 13.2652 78.5 13C78.5 12.7348 78.3946 12.4804 78.2071 12.2929C78.0196 12.1054 77.7652 12 77.5 12Z" fill="#9387FF"/>
<path d="M50.5 13C40.687 13 31.2759 16.8982 24.337 23.837C17.3982 30.7759 13.5 40.187 13.5 50C13.5 59.813 17.3982 69.2241 24.337 76.1629C31.2759 83.1018 40.687 87 50.5 87C60.313 87 69.7241 83.1018 76.6629 76.1629C83.6018 69.2241 87.5 59.813 87.5 50C87.5 40.187 83.6018 30.7759 76.6629 23.837C69.7241 16.8982 60.313 13 50.5 13Z" fill="#F1EFFF"/>
<path d="M83.5 11C82.4391 11 81.4217 11.4214 80.6716 12.1716C79.9214 12.9217 79.5 13.9391 79.5 15C79.5 16.0609 79.9214 17.0783 80.6716 17.8284C81.4217 18.5786 82.4391 19 83.5 19C84.5609 19 85.5783 18.5786 86.3284 17.8284C87.0786 17.0783 87.5 16.0609 87.5 15C87.5 13.9391 87.0786 12.9217 86.3284 12.1716C85.5783 11.4214 84.5609 11 83.5 11Z" fill="#9387FF"/>
<path d="M87.5 22C86.9696 22 86.4609 22.2107 86.0858 22.5858C85.7107 22.9609 85.5 23.4696 85.5 24C85.5 24.5304 85.7107 25.0391 86.0858 25.4142C86.4609 25.7893 86.9696 26 87.5 26C88.0304 26 88.5391 25.7893 88.9142 25.4142C89.2893 25.0391 89.5 24.5304 89.5 24C89.5 23.4696 89.2893 22.9609 88.9142 22.5858C88.5391 22.2107 88.0304 22 87.5 22Z" fill="#EAAA2E"/>
<path d="M81.5 74C80.9696 74 80.4609 74.2107 80.0858 74.5858C79.7107 74.9609 79.5 75.4696 79.5 76C79.5 76.5304 79.7107 77.0391 80.0858 77.4142C80.4609 77.7893 80.9696 78 81.5 78C82.0304 78 82.5391 77.7893 82.9142 77.4142C83.2893 77.0391 83.5 76.5304 83.5 76C83.5 75.4696 83.2893 74.9609 82.9142 74.5858C82.5391 74.2107 82.0304 74 81.5 74ZM15.5 59C14.4391 59 13.4217 59.4214 12.6716 60.1716C11.9214 60.9217 11.5 61.9391 11.5 63C11.5 64.0609 11.9214 65.0783 12.6716 65.8284C13.4217 66.5786 14.4391 67 15.5 67C16.5609 67 17.5783 66.5786 18.3284 65.8284C19.0786 65.0783 19.5 64.0609 19.5 63C19.5 61.9391 19.0786 60.9217 18.3284 60.1716C17.5783 59.4214 16.5609 59 15.5 59Z" fill="#9387FF"/>
<path d="M25.5 85C24.9696 85 24.4609 85.2107 24.0858 85.5858C23.7107 85.9609 23.5 86.4696 23.5 87C23.5 87.5304 23.7107 88.0391 24.0858 88.4142C24.4609 88.7893 24.9696 89 25.5 89C26.0304 89 26.5391 88.7893 26.9142 88.4142C27.2893 88.0391 27.5 87.5304 27.5 87C27.5 86.4696 27.2893 85.9609 26.9142 85.5858C26.5391 85.2107 26.0304 85 25.5 85Z" fill="#EAAA2E"/>
<path d="M19 49C18.337 49 17.7011 49.2634 17.2322 49.7322C16.7634 50.2011 16.5 50.837 16.5 51.5C16.5 52.163 16.7634 52.7989 17.2322 53.2678C17.7011 53.7366 18.337 54 19 54C19.663 54 20.2989 53.7366 20.7678 53.2678C21.2366 52.7989 21.5 52.163 21.5 51.5C21.5 50.837 21.2366 50.2011 20.7678 49.7322C20.2989 49.2634 19.663 49 19 49ZM80 32C79.6022 32 79.2206 32.158 78.9393 32.4393C78.658 32.7206 78.5 33.1022 78.5 33.5C78.5 33.8978 78.658 34.2794 78.9393 34.5607C79.2206 34.842 79.6022 35 80 35C80.3978 35 80.7794 34.842 81.0607 34.5607C81.342 34.2794 81.5 33.8978 81.5 33.5C81.5 33.1022 81.342 32.7206 81.0607 32.4393C80.7794 32.158 80.3978 32 80 32Z" fill="#EAAA2E"/>
<path d="M30.3472 66.3002C27.5092 66.3002 25.2002 63.9912 25.2002 61.1532V37.8482C25.2002 35.0092 27.5092 32.7012 30.3472 32.7012H71.6522C74.4912 32.7012 76.7992 35.0102 76.7992 37.8482V61.1532C76.7992 63.9922 74.4902 66.3002 71.6522 66.3002H30.3472Z" fill="#BFC3FD"/>
<path d="M71.653 33.4C74.105 33.4 76.1 35.395 76.1 37.847V61.153C76.1 63.605 74.105 65.6 71.653 65.6H30.347C27.895 65.6 25.9 63.605 25.9 61.153V37.847C25.9 35.395 27.895 33.4 30.347 33.4H71.653ZM71.653 32H30.347C27.118 32 24.5 34.618 24.5 37.847V61.153C24.5 64.382 27.118 67 30.347 67H71.652C74.882 67 77.5 64.382 77.5 61.153V37.847C77.5 34.618 74.882 32 71.653 32Z" fill="#252D36"/>
<path d="M25.833 38.625H76.083V44.625H25.833V38.625Z" fill="#EDA851"/>
<path d="M30 47.5H55V51.5H30V47.5Z" fill="#FEFDEF"/>
<path d="M55 52H30C29.724 52 29.5 51.776 29.5 51.5V47.5C29.5 47.224 29.724 47 30 47H55C55.276 47 55.5 47.224 55.5 47.5V51.5C55.5 51.776 55.276 52 55 52ZM30.5 51H54.5V48H30.5V51Z" fill="#252D36"/>
<path d="M59 47.5H67V51.5H59V47.5Z" fill="#FEFDEF"/>
<path d="M67 52H59C58.724 52 58.5 51.776 58.5 51.5V47.5C58.5 47.224 58.724 47 59 47H67C67.276 47 67.5 47.224 67.5 47.5V51.5C67.5 51.776 67.276 52 67 52ZM59.5 51H66.5V48H59.5V51Z" fill="#252D36"/>
<path d="M36.833 61.499H32.166C30.969 61.499 29.999 60.529 29.999 59.332V56.665C29.999 55.468 30.969 54.498 32.166 54.498H36.833C38.03 54.498 39 55.468 39 56.665V59.332C39 60.529 38.03 61.499 36.833 61.499Z" fill="#CECCBE"/>
<path d="M36.833 62H32.166C30.696 62 29.5 60.804 29.5 59.333V56.667C29.5 55.196 30.696 54 32.167 54H36.834C38.304 54 39.5 55.196 39.5 56.667V59.333C39.5 60.804 38.304 62 36.833 62ZM32.167 55C31.248 55 30.5 55.748 30.5 56.667V59.333C30.5 60.252 31.248 61 32.167 61H36.834C37.752 61 38.5 60.252 38.5 59.333V56.667C38.5 55.748 37.752 55 36.833 55H32.167Z" fill="#252D36"/>
<path d="M59 56H45C44.724 56 44.5 55.776 44.5 55.5C44.5 55.224 44.724 55 45 55H59C59.276 55 59.5 55.224 59.5 55.5C59.5 55.776 59.276 56 59 56Z" fill="#252D36"/>
<path d="M66 59H45C44.724 59 44.5 58.776 44.5 58.5C44.5 58.224 44.724 58 45 58H66C66.276 58 66.5 58.224 66.5 58.5C66.5 58.776 66.276 59 66 59Z" fill="#252D36"/>
<path d="M54 62H45C44.724 62 44.5 61.776 44.5 61.5C44.5 61.224 44.724 61 45 61H54C54.276 61 54.5 61.224 54.5 61.5C54.5 61.776 54.276 62 54 62Z" fill="#252D36"/>
<path d="M63 62H57C56.724 62 56.5 61.776 56.5 61.5C56.5 61.224 56.724 61 57 61H63C63.276 61 63.5 61.224 63.5 61.5C63.5 61.776 63.276 62 63 62Z" fill="#252D36"/>
<path d="M70 56H62C61.724 56 61.5 55.776 61.5 55.5C61.5 55.224 61.724 55 62 55H70C70.276 55 70.5 55.224 70.5 55.5C70.5 55.776 70.276 56 70 56Z" fill="#252D36"/>
<path d="M35 39H26C25.724 39 25.5 38.776 25.5 38.5C25.5 38.224 25.724 38 26 38H35C35.276 38 35.5 38.224 35.5 38.5C35.5 38.776 35.276 39 35 39Z" fill="#252D36"/>
<path d="M44 45H26C25.724 45 25.5 44.776 25.5 44.5C25.5 44.224 25.724 44 26 44H44C44.276 44 44.5 44.224 44.5 44.5C44.5 44.776 44.276 45 44 45Z" fill="#252D36"/>
<path d="M76 45H47C46.724 45 46.5 44.776 46.5 44.5C46.5 44.224 46.724 44 47 44H76C76.276 44 76.5 44.224 76.5 44.5C76.5 44.776 76.276 45 76 45Z" fill="#252D36"/>
<path d="M44 39H39C38.724 39 38.5 38.776 38.5 38.5C38.5 38.224 38.724 38 39 38H44C44.276 38 44.5 38.224 44.5 38.5C44.5 38.776 44.276 39 44 39Z" fill="#252D36"/>
<path d="M76 39H48C47.724 39 47.5 38.776 47.5 38.5C47.5 38.224 47.724 38 48 38H76C76.276 38 76.5 38.224 76.5 38.5C76.5 38.776 76.276 39 76 39Z" fill="#252D36"/>
</svg>
