<svg width="15" height="21" viewBox="0 0 15 21" fill="none" xmlns="http://www.w3.org/2000/svg">
<path d="M14.5313 6.56247H0.468778C0.210017 6.56247 4.00543e-05 6.26844 4.00543e-05 5.90623C4.00543e-05 5.54397 0.210056 5.25 0.468778 5.25H14.5313C14.79 5.25 15 5.54402 15 5.90623C15 6.26844 14.79 6.56247 14.5313 6.56247Z" fill="#212121"/>
<path d="M0.468778 9.84375H14.5313C14.79 9.84375 15 10.1378 15 10.5C15 10.8622 14.79 11.1562 14.5313 11.1562H0.468778C0.210017 11.1562 4.00543e-05 10.8622 4.00543e-05 10.5C4.00543e-05 10.1378 0.210017 9.84375 0.468778 9.84375Z" fill="#212121"/>
<path d="M0.468773 14.4375H9.84376C10.1025 14.4375 10.3125 14.7315 10.3125 15.0937C10.3125 15.456 10.1025 15.75 9.84376 15.75H0.468773C0.210012 15.75 3.52859e-05 15.4559 3.52859e-05 15.0937C-3.8147e-06 14.7315 0.210012 14.4375 0.468773 14.4375Z" fill="#212121"/>
</svg>
