<svg width="16" height="16" viewBox="0 0 16 16" fill="none" xmlns="http://www.w3.org/2000/svg">
    <path fill-rule="evenodd" clip-rule="evenodd" d="M0 8C0 3.58172 3.58172 0 8 0C10.1217 0 12.1566 0.842855 13.6569 2.34315C15.1571 3.84344 16 5.87827 16 8C16 12.4183 12.4183 16 8 16C3.58172 16 0 12.4183 0 8ZM1.39999 8C1.39999 11.6451 4.35491 14.6 7.99999 14.6C11.6428 14.5945 14.5945 11.6428 14.6 8C14.6 4.35492 11.6451 1.4 7.99999 1.4C4.35491 1.4 1.39999 4.35492 1.39999 8ZM7.99999 6C8.55228 6 8.99999 5.55229 8.99999 5C8.99999 4.44772 8.55228 4 7.99999 4C7.44771 4 6.99999 4.44772 6.99999 5C6.99999 5.55229 7.44771 6 7.99999 6ZM9.68998 11.385C9.68999 11.3833 9.69 11.3817 9.69 11.38V11.3899C9.69 11.3882 9.68999 11.3866 9.68998 11.385ZM8.99 12.08C9.37494 12.08 9.68731 11.7693 9.68998 11.385C9.68734 11.0045 9.38101 10.6954 9 10.69H8.7V7.64C8.7 7.2534 8.3866 6.94 8 6.94H7C6.6134 6.94 6.29999 7.2534 6.29999 7.64C6.29999 8.0266 6.6134 8.34 7 8.34H7.3V10.68H7C6.6134 10.68 6.29999 10.9934 6.29999 11.38C6.29999 11.7666 6.6134 12.08 7 12.08H8.99Z" fill="#EF7E27"/>
</svg>