<svg width="164" height="164" viewBox="0 0 164 164" fill="none" xmlns="http://www.w3.org/2000/svg">
<path d="M126.28 22.9599C127.186 22.9599 127.92 22.2257 127.92 21.3199C127.92 20.4142 127.186 19.6799 126.28 19.6799C125.374 19.6799 124.64 20.4142 124.64 21.3199C124.64 22.2257 125.374 22.9599 126.28 22.9599Z" fill="#EAB43B"/>
<path d="M82.0001 142.68C115.513 142.68 142.68 115.513 142.68 82.0001C142.68 48.4874 115.513 21.3201 82.0001 21.3201C48.4874 21.3201 21.3201 48.4874 21.3201 82.0001C21.3201 115.513 48.4874 142.68 82.0001 142.68Z" fill="#E4E9B4"/>
<path d="M136.12 31.16C139.743 31.16 142.68 28.223 142.68 24.6C142.68 20.9771 139.743 18.04 136.12 18.04C132.497 18.04 129.56 20.9771 129.56 24.6C129.56 28.223 132.497 31.16 136.12 31.16Z" fill="#EAB43B"/>
<path d="M142.68 42.6401C144.491 42.6401 145.96 41.1716 145.96 39.3601C145.96 37.5486 144.491 36.0801 142.68 36.0801C140.868 36.0801 139.4 37.5486 139.4 39.3601C139.4 41.1716 140.868 42.6401 142.68 42.6401Z" fill="#83A34A"/>
<path d="M132.84 127.92C134.652 127.92 136.12 126.452 136.12 124.64C136.12 122.829 134.652 121.36 132.84 121.36C131.029 121.36 129.56 122.829 129.56 124.64C129.56 126.452 131.029 127.92 132.84 127.92Z" fill="#EAB43B"/>
<path d="M24.6 111.52C28.223 111.52 31.16 108.583 31.16 104.96C31.16 101.337 28.223 98.3999 24.6 98.3999C20.9771 98.3999 18.04 101.337 18.04 104.96C18.04 108.583 20.9771 111.52 24.6 111.52Z" fill="#EAB43B"/>
<path d="M41 145.96C42.8115 145.96 44.28 144.491 44.28 142.68C44.28 140.868 42.8115 139.4 41 139.4C39.1885 139.4 37.72 140.868 37.72 142.68C37.72 144.491 39.1885 145.96 41 145.96Z" fill="#83A34A"/>
<path d="M31.9799 78.72C34.2443 78.72 36.0799 76.8844 36.0799 74.62C36.0799 72.3557 34.2443 70.52 31.9799 70.52C29.7155 70.52 27.8799 72.3557 27.8799 74.62C27.8799 76.8844 29.7155 78.72 31.9799 78.72Z" fill="white"/>
<path d="M130.38 57.4C131.739 57.4 132.84 56.2986 132.84 54.94C132.84 53.5814 131.739 52.48 130.38 52.48C129.021 52.48 127.92 53.5814 127.92 54.94C127.92 56.2986 129.021 57.4 130.38 57.4Z" fill="white"/>
<path d="M124 70.6248C124 71.3876 123.385 72 122.634 72H42.3664C41.6144 72 41 71.388 41 70.6262V54.3755C41 53.613 41.6144 53.0013 42.3664 53.0013H42.3664L122.634 53C123.386 53 124 53.6117 124 54.3742V70.6248Z" fill="#CCD1D9" stroke="#252D36" stroke-width="2"/>
<path d="M41 59H124V114H41V59Z" fill="#E5E8EC" stroke="#252D36" stroke-width="2"/>
<path d="M44.6255 56C44.2806 56 44 56.2248 44 56.5003C44 56.5659 44.0162 56.6309 44.0476 56.6915C44.079 56.7522 44.1251 56.8072 44.1832 56.8536C44.2413 56.9 44.3102 56.9368 44.3861 56.962C44.462 56.9871 44.5433 57 44.6255 57C44.7076 57 44.7889 56.9871 44.8648 56.962C44.9407 56.9368 45.0096 56.9 45.0677 56.8536C45.1258 56.8072 45.1719 56.7522 45.2033 56.6915C45.2347 56.6309 45.2509 56.5659 45.2509 56.5003C45.2509 56.3677 45.185 56.2406 45.0677 56.1468C44.9505 56.053 44.7914 56.0002 44.6255 56ZM47.5007 56C47.3347 56.0003 47.1756 56.053 47.0582 56.1468C46.9408 56.2406 46.8747 56.3677 46.8743 56.5003C46.8743 56.776 47.1559 57 47.5007 57C47.8456 57 48.1262 56.776 48.1262 56.5003C48.1262 56.2249 47.8456 56 47.5007 56ZM50.3745 56C50.0297 56 49.7491 56.2248 49.7491 56.5003C49.7491 56.776 50.0297 57 50.3745 57C50.7194 57 51 56.776 51 56.5003C50.9998 56.3678 50.9339 56.2407 50.8167 56.1469C50.6994 56.0531 50.5404 56.0003 50.3745 56Z" fill="#424953"/>
<path d="M47.1 67.1H54.9V68.9H47.1V67.1Z" fill="#9ED36A" stroke="black" stroke-width="0.2"/>
<path d="M51.1 71.1H71.9V73.9H51.1V71.1Z" fill="#FF8C75" stroke="black" stroke-width="0.2"/>
<path d="M51.1 77.1H74.9V78.9H51.1V77.1Z" fill="#EDA851" stroke="black" stroke-width="0.2"/>
<path d="M51.1 82.1H71.9V82.9H51.1V82.1Z" fill="#FF8C75" stroke="black" stroke-width="0.2"/>
<path d="M47.1 86.1H71.9V87.9H47.1V86.1Z" fill="#9ED36A" stroke="black" stroke-width="0.2"/>
<path d="M51.1 91.1H94.9V92.9H51.1V91.1Z" fill="#46CEAD" stroke="black" stroke-width="0.2"/>
<path d="M53.1 96.1H77.9V97.9H53.1V96.1Z" fill="#EDA851" stroke="black" stroke-width="0.2"/>
<path d="M51.1 100.1H62.9V102.9H51.1V100.1Z" fill="#FF8C75" stroke="black" stroke-width="0.2"/>
<path d="M47.1 105.1H71.9V106.9H47.1V105.1Z" fill="#9ED36A" stroke="black" stroke-width="0.2"/>
<path d="M112.509 90.9411L114.667 85.6626L113.318 85.1215L113.298 85.1137L113.28 85.1027C111.275 83.8742 110.391 81.3578 111.306 79.1206C111.692 78.178 112.342 77.4192 113.134 76.8955L113.153 76.8826L113.175 76.8736L114.584 76.2812L112.332 71.038L110.989 71.6019L110.969 71.6101L110.949 71.6149C108.651 72.1488 106.232 70.987 105.276 68.7637L112.509 90.9411ZM112.509 90.9411L111.087 90.3728L111.065 90.364L111.042 90.3595C110.106 90.1795 109.104 90.259 108.159 90.6604C105.912 91.5992 104.736 93.9918 105.273 96.2653L105.278 96.2864L105.287 96.3064L105.854 97.6278L100.545 99.8552L99.9485 98.4662L99.9392 98.4445L99.926 98.4249C99.3761 97.6107 98.59 96.9807 97.6714 96.6176C95.4092 95.7125 92.8682 96.5821 91.6238 98.566L91.6124 98.5841L91.6043 98.6039L91.0567 99.9377L85.709 97.8049L86.2817 96.4047L86.2907 96.3825L86.2954 96.359C86.4868 95.4 86.3818 94.4063 85.9942 93.5073C85.0397 91.2848 82.6189 90.1229 80.3243 90.6558L80.3038 90.6606L80.2844 90.6687L78.9385 91.232L76.6866 85.987L78.0946 85.3981L78.1165 85.389L78.1362 85.3759C78.9286 84.851 79.5768 84.0888 79.9619 83.1506L79.9621 83.1502C80.8784 80.9093 79.9955 78.3942 77.99 77.1644L77.9717 77.1531L77.9517 77.1452L76.6034 76.6089L78.7629 71.3267L80.1812 71.8938L80.2027 71.9024L80.2254 71.9069C81.1643 72.0931 82.1656 72.0077 83.1113 71.6104C85.3576 70.669 86.5369 68.2772 85.998 66.0041L85.993 65.983L85.9844 65.9631L85.4161 64.639M112.509 90.9411L85.4161 64.639M85.4161 64.639L90.7247 62.4129L91.3242 63.8064L91.3336 63.8283L91.347 63.848C91.8782 64.6313 92.6475 65.2736 93.5983 65.6537L93.5986 65.6538C95.8607 66.5556 98.4016 65.6877 99.6494 63.7049L99.661 63.6864L99.6692 63.6662L100.215 62.3304L105.561 64.4666L104.991 65.8636L104.982 65.8854L104.978 65.9085C104.784 66.8682 104.888 67.8634 105.276 68.7634L85.4161 64.639ZM98.6917 88.2559L98.6918 88.2558C102.67 86.5873 104.529 82.0463 102.839 78.113C101.149 74.1794 96.5558 72.3451 92.5785 74.0144C88.5997 75.6824 86.7417 80.2209 88.4313 84.1562L88.661 84.0576L88.4313 84.1562C90.1209 88.0914 94.7159 89.9219 98.6917 88.2559Z" fill="#424953" stroke="black" stroke-width="0.5"/>
<path d="M96.4987 69C90.1479 69 85 74.1489 85 80.4997C85 86.8516 90.1477 92 96.4987 92C102.851 92 108 86.8517 108 80.4997C108 74.1489 102.851 69 96.4987 69ZM99.4997 87.5671C95.5952 89.2219 91.0851 87.4025 89.4278 83.4985C87.7711 79.5959 89.5917 75.0926 93.4976 73.4364C97.4035 71.7785 101.912 73.6014 103.57 77.504C105.227 81.4045 103.405 85.9104 99.4997 87.5671Z" fill="#303842"/>
<path d="M122 106.818V103.219H120.074C119.913 102.561 119.672 101.939 119.353 101.368L120.713 99.9252L118.308 97.3819L116.959 98.8127C116.405 98.4619 115.807 98.1973 115.183 98.0271V96H111.785V98.0271C111.168 98.1949 110.577 98.4546 110.029 98.7986L108.675 97.365L106.272 99.911L107.625 101.343C107.299 101.929 107.052 102.56 106.893 103.219H105V106.818H106.903C107.064 107.473 107.312 108.101 107.639 108.683L106.288 110.108L108.692 112.655L110.053 111.216C110.585 111.548 111.167 111.803 111.785 111.973V114H115.183V111.973C115.798 111.804 116.388 111.545 116.936 111.204L118.292 112.635L120.695 110.094L119.342 108.656C119.663 108.082 119.906 107.463 120.065 106.818H122ZM113.483 107.661C112.096 107.661 110.97 106.472 110.97 105.001C110.97 103.532 112.096 102.339 113.483 102.339C114.872 102.339 115.995 103.532 115.995 105.001C115.995 106.472 114.872 107.661 113.483 107.661Z" fill="#424953"/>
<path d="M99 81.4993C99 82.8811 97.6567 84 95.999 84C94.3428 84 93 82.8811 93 81.4993C93 80.1186 94.3427 79 95.999 79C97.6567 79 99 80.1186 99 81.4993Z" fill="#303842"/>
</svg>
