<svg width="325" height="325" viewBox="0 0 325 325" fill="none" xmlns="http://www.w3.org/2000/svg">
<path d="M176.28 246.22H108.55V298.415H176.28V246.22Z" fill="#EBEBEB"/>
<path d="M159.315 298.025C159.25 298.025 159.12 286.39 159.12 272.025C159.12 257.66 159.185 246.025 159.315 246.025C159.445 246.025 159.51 257.66 159.51 272.025C159.445 286.39 159.38 298.025 159.315 298.025Z" fill="#E0E0E0"/>
<path d="M170.495 286.52H165.295V292.37H170.495V286.52Z" fill="#FAFAFA"/>
<path d="M136.89 246.35H129.22V257.465H136.89V246.35Z" fill="#E0E0E0"/>
<path d="M136.89 287.105H129.22V298.22H136.89V287.105Z" fill="#E0E0E0"/>
<path d="M299.065 233.09H213.72V298.935H299.065V233.09Z" fill="#EBEBEB"/>
<path d="M277.68 298.48C277.615 298.48 277.485 283.79 277.485 265.72C277.485 247.585 277.55 232.96 277.68 232.96C277.81 232.96 277.875 247.65 277.875 265.72C277.875 283.79 277.81 298.48 277.68 298.48Z" fill="#E0E0E0"/>
<path d="M291.85 283.92H285.285V291.33H291.85V283.92Z" fill="#FAFAFA"/>
<path d="M249.47 233.285H239.785V247.325H249.47V233.285Z" fill="#E0E0E0"/>
<path d="M249.47 284.7H239.785V298.74H249.47V284.7Z" fill="#E0E0E0"/>
<path d="M52.9748 235.04C56.4198 233.285 60.5148 233.025 64.3498 233.675C66.4298 234 68.5748 234.65 69.9398 236.21C71.3698 237.77 71.6298 240.5 70.0048 241.8C69.0298 242.58 67.7298 242.71 66.4948 242.71C63.5048 242.645 60.1898 242.125 57.7848 243.945C56.4198 244.985 55.5098 246.675 53.8848 247.195C52.2598 247.715 50.5048 246.74 49.6598 245.31C48.8148 243.88 48.8148 242.06 49.2048 240.435C49.0748 240.37 49.4648 236.86 52.9748 235.04Z" fill="#EBEBEB"/>
<path d="M45.045 219.765C47.125 222.755 51.285 221.78 53.17 219.96C55.055 218.14 55.9 215.475 56.615 212.875C58.305 207.09 59.995 200.98 58.76 195.065C58.37 193.31 57.72 191.555 56.485 190.19C55.25 188.89 53.3 188.11 51.61 188.565C49.53 189.085 48.23 191.165 47.32 193.05C44.59 198.705 43.16 205.01 43.095 211.315C43.03 214.24 43.355 217.295 45.045 219.765Z" fill="#EBEBEB"/>
<path d="M39.2598 224.055C41.5348 221.325 41.9898 217.36 40.9498 213.98C39.9098 210.6 37.6348 207.675 34.9698 205.27C31.8498 202.475 28.2098 200.33 24.2448 198.965C22.6848 198.445 21.0598 197.99 19.4348 198.12C17.8098 198.25 16.1848 199.095 15.4048 200.59C14.2998 202.735 15.3398 205.335 16.5098 207.48C18.5898 211.25 20.9298 214.825 23.5298 218.205C25.6098 220.935 28.0798 223.6 31.2648 224.835C34.4498 226.07 37.8298 225.94 39.5198 223.665" fill="#EBEBEB"/>
<path d="M44.9148 265.265C44.9798 265.265 45.0448 264.81 45.1098 263.9C45.1748 262.925 45.3048 261.625 45.4998 260.13C45.6948 258.57 45.8898 256.685 46.3448 254.67C46.7998 252.655 47.4498 250.445 48.3598 248.17C49.2698 245.96 50.3748 243.945 51.6748 242.32C52.9748 240.695 54.4698 239.525 55.8348 238.875C57.2648 238.16 58.4998 237.9 59.3448 237.77C60.1898 237.705 60.7098 237.64 60.7098 237.575C60.7098 237.51 60.1898 237.51 59.3448 237.575C58.4348 237.64 57.1348 237.835 55.7048 238.55C54.2098 239.2 52.6498 240.37 51.2848 242.06C49.9198 243.685 48.7498 245.765 47.8398 248.04C46.9298 250.315 46.2798 252.525 45.8898 254.605C45.4998 256.685 45.3048 258.57 45.1748 260.195C45.0448 261.755 44.9798 263.055 44.9798 263.965C44.8498 264.745 44.8498 265.265 44.9148 265.265Z" fill="#E0E0E0"/>
<path d="M45.1747 262.405C45.1747 262.405 45.1747 262.21 45.2397 261.755C45.2397 261.3 45.2397 260.65 45.2397 259.935C45.2397 258.375 45.2397 256.1 45.3047 253.24C45.4347 247.585 45.9547 241.54 46.8647 232.96C47.7747 224.9 48.9447 215.54 50.1797 209.43C50.4397 208.065 50.6997 206.83 50.9597 205.725C51.2197 204.62 51.4147 203.71 51.6097 202.93C51.8047 202.215 51.9347 201.63 52.0647 201.175C52.1297 200.785 52.1947 200.525 52.1947 200.525C52.1947 200.525 52.1297 200.72 51.9997 201.11C51.8697 201.565 51.6747 202.15 51.4797 202.865C51.2197 203.645 51.0247 204.555 50.6997 205.66C50.4397 206.765 50.1147 208 49.7897 209.365C48.5547 214.89 47.2547 222.625 46.2797 231.205C45.3697 239.785 44.9147 247.585 44.8497 253.24C44.7847 256.1 44.8497 258.375 44.9797 259.935C45.0447 260.65 45.0447 261.3 45.1097 261.755C45.1097 262.145 45.1097 262.405 45.1747 262.405Z" fill="#E0E0E0"/>
<path d="M45.1748 247.325C45.2398 247.325 45.2398 246.675 45.1748 245.44C45.1098 244.205 44.9147 242.45 44.5898 240.305C44.1998 238.16 43.7448 235.56 42.8998 232.83C42.5748 231.53 41.7298 228.54 39.7798 223.925C37.1798 217.75 33.6698 212.68 30.5498 209.56C29.8348 208.715 29.0548 208.13 28.4048 207.545C28.0798 207.285 27.7548 206.96 27.4948 206.765C27.1698 206.57 26.9098 206.375 26.6498 206.18C25.6098 205.465 25.0898 205.14 25.0248 205.14C24.9598 205.27 27.2998 206.635 30.2898 209.82C33.2798 213.005 36.6598 218.01 39.2598 224.12C40.6898 227.435 41.7298 230.425 42.4448 232.895C43.2898 235.625 43.8098 238.16 44.1998 240.305C44.5898 242.45 44.8497 244.205 44.9797 245.375C45.0447 246.675 45.1748 247.325 45.1748 247.325Z" fill="#E0E0E0"/>
<path d="M29.6396 271.635L31.1347 292.305H57.7196L59.2146 271.635H29.6396Z" fill="#EBEBEB"/>
<path d="M62.4 263.445H27.04V271.57H62.4V263.445Z" fill="#EBEBEB"/>
<path d="M27.04 291.525V293.735H28.73H61.815V291.525H27.04Z" fill="#E0E0E0"/>
<path d="M30.355 297.505L28.73 293.54H60.515L58.63 297.505H30.355Z" fill="#E0E0E0"/>
<path d="M58.6949 278.395C58.6949 278.395 58.6299 278.46 58.5649 278.59C58.4349 278.72 58.3049 278.915 58.1749 279.11C57.7849 279.565 57.2649 280.28 56.6149 281.06L56.5499 281.125L56.4849 281.06C55.5099 279.695 54.2099 277.94 52.6499 275.795H52.8449C51.7399 277.42 50.4399 279.175 49.0749 281.125L48.9449 281.32L48.8149 281.19C47.4499 279.565 45.9549 277.745 44.3949 275.925H44.6549C44.5899 275.99 44.5249 276.12 44.3949 276.25C43.0299 278.005 41.6649 279.63 40.4299 281.255L40.2999 281.45L40.1699 281.255C38.8049 279.37 37.5699 277.55 36.3999 275.925H36.5949C34.7749 278.005 33.2149 279.825 31.9799 281.19L31.9149 281.255L31.8499 281.125C31.2649 280.085 30.7449 279.305 30.4199 278.72C30.2899 278.46 30.1599 278.265 30.0299 278.07C29.9649 277.94 29.8999 277.875 29.8999 277.81C29.8999 277.81 29.9649 277.875 30.0299 278.005C30.1599 278.2 30.2899 278.395 30.4199 278.655C30.8099 279.24 31.3299 280.02 31.9149 281.06H31.7849C32.9549 279.695 34.5149 277.875 36.3349 275.73L36.4649 275.6L36.5949 275.73C37.7649 277.355 38.9999 279.11 40.3649 280.995H40.1049C41.3399 279.435 42.7049 277.745 44.0699 275.99C44.1349 275.86 44.2649 275.795 44.3299 275.665L44.4599 275.535L44.5899 275.665C46.1499 277.55 47.6449 279.305 49.0099 280.93H48.7499C50.1149 279.045 51.4149 277.225 52.5199 275.665L52.6499 275.535L52.7799 275.665C54.2749 277.81 55.5749 279.63 56.4849 280.995H56.3549C57.0049 280.15 57.5899 279.565 57.9799 279.045C58.1749 278.85 58.3049 278.655 58.4349 278.525C58.6299 278.395 58.6949 278.395 58.6949 278.395Z" fill="#F5F5F5"/>
<path d="M59.605 271.505C59.605 271.57 52.975 271.7 44.72 271.7C36.53 271.7 29.835 271.635 29.835 271.505C29.835 271.44 36.465 271.31 44.72 271.31C52.91 271.31 59.605 271.375 59.605 271.505Z" fill="#F5F5F5"/>
<path d="M302.055 298.61C302.055 298.675 239.59 298.805 162.565 298.805C85.4753 298.805 23.0103 298.74 23.0103 298.61C23.0103 298.545 85.4753 298.415 162.565 298.415C239.525 298.415 302.055 298.48 302.055 298.61Z" fill="#263238"/>
<path d="M96.9798 60.0598C100.035 63.7648 101.725 68.5748 101.66 73.3848C101.66 76.1148 101.14 79.1698 102.7 81.3798C103.935 83.0698 106.145 83.9148 107.12 85.7348C108.29 87.9448 107.315 90.7398 108.03 93.1448C109.07 96.5248 113.035 97.9548 115.375 100.62C117.39 102.895 118.17 106.275 117.325 109.265C116.48 112.255 114.14 114.725 111.215 115.7C109.655 116.22 107.9 116.35 106.405 115.635C104.78 114.855 103.805 113.23 103.025 111.605C101.465 108.485 87.6848 91.5198 86.9048 88.1398" fill="#263238"/>
<path d="M86.9696 56.03C81.3146 55.12 75.9196 58.89 73.5796 64.025C71.2396 69.225 71.1746 75.075 70.9796 80.795C70.7846 86.515 70.3946 92.43 67.4696 97.37C65.6496 100.49 62.7896 103.22 62.3346 106.795C61.9446 109.98 63.5696 113.23 63.0496 116.415C62.5946 119.21 60.4496 121.615 60.5146 124.41C60.6446 127.79 64.0896 130.325 67.4696 130.455C70.8496 130.52 74.0346 128.765 76.6996 126.685C80.9896 123.24 84.4996 118.82 86.8396 113.815" fill="#263238"/>
<path d="M77.74 69.4847C77.025 63.5697 81.315 58.1097 87.295 57.5247C92.95 57.0047 98.02 61.2297 98.865 66.8847C99.58 71.8247 100.23 76.8297 100.23 78.6497C100.165 84.1097 96.98 86.2547 95.68 86.9047C95.355 87.0347 94.575 87.2298 94.25 87.2948C94.25 87.2948 94.185 87.2947 94.25 87.3597L95.485 93.6648C96.005 97.7598 93.73 101.465 89.635 102.05C85.54 102.635 82.29 99.5148 81.64 95.3547L77.74 69.4847Z" fill="#FFBE9D"/>
<path d="M97.7599 69.2248C97.6949 69.3548 96.9799 68.9648 96.0049 69.0948C95.0949 69.2248 94.4449 69.8098 94.3799 69.6798C94.3149 69.6148 94.3799 69.4198 94.6399 69.1598C94.8999 68.8998 95.3549 68.6398 95.9399 68.5098C96.5249 68.4448 97.0449 68.5748 97.3699 68.7698C97.6949 69.0298 97.8249 69.1598 97.7599 69.2248Z" fill="#263238"/>
<path d="M89.505 71.2397C89.44 71.3697 88.66 70.9797 87.75 71.1097C86.84 71.2397 86.19 71.8247 86.125 71.6947C86.06 71.6297 86.125 71.4347 86.385 71.1747C86.645 70.9147 87.1 70.6547 87.685 70.5247C88.27 70.4597 88.79 70.5897 89.115 70.7847C89.44 70.9797 89.57 71.1747 89.505 71.2397Z" fill="#263238"/>
<path d="M92.8848 76.1799C92.8848 76.1149 93.4048 75.9199 94.3798 75.6599C94.6398 75.5949 94.8348 75.5299 94.8348 75.3349C94.8348 75.1399 94.7048 74.9449 94.5748 74.6849C94.2498 74.1649 93.9248 73.5799 93.5998 72.9949C92.2348 70.5899 91.2598 68.5749 91.3248 68.5099C91.4548 68.4449 92.5598 70.3949 93.9248 72.7999C94.2498 73.3849 94.5748 73.9699 94.8348 74.4899C94.9648 74.7499 95.1598 75.0099 95.0948 75.3999C95.0298 75.5949 94.8998 75.7249 94.7698 75.7899C94.6398 75.8549 94.5098 75.8549 94.3798 75.9199C93.4698 76.1799 92.8848 76.2449 92.8848 76.1799Z" fill="#263238"/>
<path d="M94.1848 87.2299C94.1848 87.2299 90.6748 88.0749 85.7998 85.9949C85.7998 85.9949 87.8798 90.5449 94.5098 88.9199L94.1848 87.2299Z" fill="#EB996E"/>
<path d="M89.0501 68.8346C88.9851 69.0946 88.0751 69.0946 86.9701 69.4196C85.8651 69.6796 85.0851 70.1346 84.8901 69.9396C84.8251 69.8096 84.9551 69.5496 85.2151 69.2896C85.5401 68.9646 86.0601 68.7046 86.7101 68.5096C87.3601 68.3146 87.9451 68.3796 88.4001 68.4446C88.8551 68.5096 89.0501 68.7046 89.0501 68.8346Z" fill="#263238"/>
<path d="M96.9799 67.2098C96.8499 67.4698 96.1999 67.3398 95.4199 67.4048C94.6399 67.4698 94.0549 67.7298 93.8599 67.5348C93.7949 67.4698 93.8599 67.2098 94.1199 66.9498C94.3799 66.6898 94.8349 66.4948 95.3549 66.4298C95.8749 66.3647 96.3949 66.4948 96.6549 66.6898C96.9149 66.8848 97.0449 67.0798 96.9799 67.2098Z" fill="#263238"/>
<path d="M87.4898 72.4097C87.5548 72.7997 87.9448 73.0597 88.3348 73.0597C88.7248 72.9947 89.0498 72.6047 88.9848 72.2147C88.9198 71.8247 88.5298 71.5647 88.1398 71.5647C87.7498 71.6947 87.4248 72.0197 87.4898 72.4097Z" fill="#263238"/>
<path d="M95.6802 70.6548C95.7452 71.0448 96.1352 71.3048 96.5252 71.3048C96.9152 71.2398 97.2402 70.8498 97.1752 70.4598C97.1102 70.0698 96.7202 69.8098 96.3302 69.8098C95.9402 69.8748 95.6802 70.2648 95.6802 70.6548Z" fill="#263238"/>
<path d="M94.3799 77.9998C93.7949 77.8048 93.2749 78.1298 93.0149 78.5848C92.7549 79.0398 92.8199 79.6248 93.2099 79.9498C93.5349 80.2748 94.1849 80.3398 94.5749 80.0148C94.8349 79.8198 94.9649 79.4948 95.0299 79.1048C95.0299 78.7798 95.0299 78.4548 94.8349 78.1948C94.6399 77.9348 94.3149 77.8048 93.9899 77.9348" fill="#EB996E"/>
<path d="M98.1498 62.3999C97.6948 60.3199 96.3298 58.5649 94.5748 57.3949C93.0798 56.3549 91.3898 55.7049 89.5698 55.6399C87.8148 55.5749 85.9298 56.1599 84.6948 57.3949C83.7198 58.3049 83.2648 59.6049 83.1998 60.9049L83.3298 59.9949C83.0698 60.7099 83.0698 61.5549 83.3298 62.2699C83.4598 62.6599 83.6548 63.0499 83.8498 63.4399C84.3048 64.5449 85.2148 65.5199 86.2548 66.1049C86.7748 66.3649 87.2948 66.5599 87.8798 66.4949C88.4648 66.4949 88.9848 66.2349 89.3748 65.7799C89.8948 65.1299 89.8298 64.2199 89.6998 63.4399C90.1548 64.2199 90.6748 64.9999 91.4548 65.4549C92.2348 65.9099 93.3398 65.9099 93.9248 65.1949C94.4448 64.4799 94.2498 63.5049 93.9248 62.7249C94.4448 63.5049 95.1598 64.0899 95.9398 64.4799C96.3948 64.6749 96.9148 64.8049 97.3698 64.6099C97.7598 64.4149 98.0198 64.0249 98.1498 63.6349C98.2798 63.3099 98.2148 62.8549 98.1498 62.3999Z" fill="#263238"/>
<path d="M93.4698 64.1548C93.4048 64.1548 93.4048 63.3748 93.1448 62.2048C92.8848 61.0348 92.2998 59.3448 90.8698 58.1098C90.1548 57.5248 89.3748 57.0698 88.5948 56.8748C87.8148 56.6798 87.0998 56.6798 86.5148 56.8098C85.3448 57.0698 84.7598 57.5898 84.6948 57.5898C84.6948 57.5898 84.8248 57.3948 85.0848 57.1998C85.3448 57.0048 85.7998 56.7448 86.4498 56.6148C87.0348 56.4848 87.8148 56.4198 88.6598 56.6148C89.5048 56.8098 90.3498 57.2648 91.0648 57.8498C92.5598 59.1498 93.1448 60.9048 93.3398 62.1398C93.4698 62.7898 93.4698 63.2448 93.4698 63.6348C93.4698 63.9598 93.4698 64.1548 93.4698 64.1548Z" fill="#455A64"/>
<path d="M153.335 139.88L128.31 130C128.31 130 115.505 113.23 115.765 112.905L106.795 122.72L119.86 140.4L150.15 147.485L164.515 147.615C163.345 142.09 153.335 139.88 153.335 139.88Z" fill="#FFBE9D"/>
<path d="M98.8651 92.04L95.4851 90.74L80.7951 92.625V95.225L80.4051 95.29C80.4051 95.29 75.8551 96.135 71.3701 98.8C65.9751 102.05 63.1801 108.225 64.2201 114.465C64.8051 118.17 65.9751 122.72 68.1851 125.32C72.4751 130.325 76.3751 124.15 76.3751 124.15C76.3751 124.15 79.0401 130.26 78.9101 133.185C78.7801 135.59 77.7401 140.66 77.3501 142.22C77.2851 142.48 77.4801 142.74 77.7401 142.805L108.745 148.525L108.875 140.92L107.9 109.72L106.535 97.63C106.47 97.5 106.535 91.715 98.8651 92.04Z" fill="#09006B"/>
<path d="M106.015 95.4849L117.845 112.58L108.29 124.15L106.015 95.4849Z" fill="#09006B"/>
<path d="M108.55 131.43C108.55 131.43 108.485 131.04 108.485 130.325C108.485 129.545 108.485 128.57 108.42 127.335C108.355 124.8 108.225 121.29 107.705 117.455C107.185 113.62 106.47 110.175 105.885 107.705C105.625 106.535 105.365 105.495 105.17 104.78C105.04 104.065 104.91 103.675 104.975 103.675C104.975 103.675 105.105 104.065 105.3 104.715C105.495 105.365 105.755 106.405 106.08 107.64C106.73 110.11 107.51 113.555 107.965 117.39C108.485 121.225 108.55 124.735 108.55 127.27C108.55 128.57 108.55 129.545 108.485 130.26C108.615 131.04 108.55 131.43 108.55 131.43Z" fill="#263238"/>
<path d="M79.43 105.43C79.43 105.495 78.52 105.495 77.09 105.56C75.66 105.625 73.645 105.82 71.5 106.275C69.355 106.73 67.47 107.315 66.105 107.835C64.74 108.355 63.96 108.68 63.895 108.68C63.895 108.68 64.09 108.55 64.415 108.355C64.805 108.16 65.325 107.9 65.975 107.64C67.34 107.055 69.225 106.405 71.37 105.95C73.515 105.495 75.53 105.365 77.025 105.3C77.74 105.3 78.325 105.3 78.715 105.365C79.235 105.43 79.43 105.43 79.43 105.43Z" fill="#FAFAFA"/>
<path d="M106.795 113.295C106.795 113.36 106.21 113.49 105.3 113.62C104.39 113.75 103.09 113.88 101.66 113.945C100.23 114.01 98.9299 113.945 98.0199 113.88C97.1099 113.815 96.5249 113.685 96.5249 113.685C96.5249 113.62 97.1099 113.62 98.0199 113.685C98.9299 113.685 100.23 113.685 101.66 113.685C103.09 113.62 104.325 113.555 105.235 113.49C106.275 113.295 106.795 113.23 106.795 113.295Z" fill="#FAFAFA"/>
<path d="M112.255 105.56C112.32 105.625 111.28 106.665 109.72 107.64C108.16 108.615 106.795 109.07 106.73 108.94C106.665 108.875 108.03 108.29 109.525 107.315C111.085 106.405 112.19 105.495 112.255 105.56Z" fill="#FAFAFA"/>
<path d="M107.445 97.6299C107.51 97.6949 106.08 98.9299 104 99.8399C101.92 100.75 100.035 100.88 100.035 100.815C100.035 100.685 101.855 100.425 103.87 99.5799C105.95 98.6699 107.445 97.5649 107.445 97.6299Z" fill="#FAFAFA"/>
<path d="M108.095 126.49C108.095 126.49 107.9 126.62 107.51 126.815C107.12 127.01 106.535 127.27 105.755 127.53C104.26 128.05 102.115 128.7 99.7101 129.09C97.3051 129.48 95.0951 129.48 93.4701 129.415C92.6901 129.35 92.0401 129.35 91.5851 129.285C91.1301 129.22 90.8701 129.155 90.8701 129.155C90.8701 129.09 91.8451 129.155 93.4701 129.22C95.0301 129.22 97.2401 129.155 99.6451 128.765C102.05 128.375 104.13 127.855 105.625 127.335C107.185 126.815 108.095 126.49 108.095 126.49Z" fill="#FAFAFA"/>
<path d="M108.355 135.33C108.355 135.33 108.29 135.395 108.095 135.46C107.9 135.59 107.575 135.72 107.25 135.85C106.535 136.175 105.495 136.63 104.13 137.15C102.83 137.67 101.205 138.19 99.3852 138.645C97.5652 139.1 95.5502 139.555 93.4052 139.88C91.2602 140.205 89.1802 140.4 87.3602 140.465C85.4752 140.53 83.7852 140.53 82.3552 140.465C80.9252 140.4 79.8202 140.27 79.0402 140.205C78.6502 140.14 78.3902 140.14 78.1302 140.075C77.9352 140.075 77.8052 140.01 77.8052 140.01C77.8052 140.01 77.9352 140.01 78.1302 140.01C78.3902 140.01 78.6502 140.075 79.0402 140.075C79.8202 140.14 80.9902 140.205 82.3552 140.27C83.7852 140.335 85.4752 140.27 87.2952 140.205C89.1802 140.075 91.1952 139.88 93.3402 139.555C95.4852 139.23 97.4352 138.775 99.2552 138.32C101.075 137.865 102.635 137.345 104 136.89C105.3 136.435 106.405 136.045 107.12 135.72C107.445 135.59 107.705 135.46 107.965 135.395C108.225 135.33 108.355 135.33 108.355 135.33Z" fill="#FAFAFA"/>
<path d="M51.3498 273.52L47.8398 289.38L41.4698 301.145C41.0148 301.99 41.3398 303.03 42.2498 303.485C42.7698 303.68 43.2898 303.68 43.7448 303.42C46.7348 301.73 57.6548 295.295 57.8498 294.125C58.0448 292.76 62.6598 277.615 62.6598 277.615L51.3498 273.52Z" fill="#9A0000"/>
<g opacity="0.6">
<path opacity="0.6" d="M42.1851 303.485L58.0451 293.085L57.8501 293.735C57.7201 294.32 57.3951 294.84 56.8751 295.165C55.5751 296.075 51.9351 298.61 43.6801 303.42C43.2901 303.68 42.7051 303.68 42.1851 303.485Z" fill="white"/>
</g>
<g opacity="0.6">
<g opacity="0.6">
<path opacity="0.6" d="M56.095 287.17C55.64 287.365 55.38 287.885 55.51 288.405C55.64 288.86 56.225 289.185 56.68 288.99C57.135 288.795 57.525 288.145 57.265 287.69C57.07 287.235 56.355 286.91 55.965 287.235" fill="white"/>
</g>
</g>
<path d="M47.5148 297.44C47.3848 297.44 47.2548 296.53 46.4098 295.88C45.6298 295.165 44.6548 295.165 44.6548 295.1C44.6548 295.035 44.8498 294.97 45.2398 295.035C45.6298 295.1 46.1498 295.23 46.6048 295.62C47.0598 296.01 47.3198 296.465 47.4498 296.855C47.5798 297.18 47.5148 297.44 47.5148 297.44Z" fill="#263238"/>
<path d="M45.8247 299.26C45.7597 299.325 45.3697 298.675 44.5897 298.22C43.8097 297.765 43.0947 297.765 43.0947 297.635C43.0947 297.57 43.9397 297.375 44.7847 297.895C45.6297 298.48 45.9547 299.26 45.8247 299.26Z" fill="#263238"/>
<path d="M50.2448 295.23C50.1798 295.295 49.5948 294.32 48.4248 293.54C47.3198 292.76 46.2148 292.5 46.2148 292.435C46.2148 292.37 47.4498 292.435 48.6198 293.28C49.8548 294.06 50.3098 295.23 50.2448 295.23Z" fill="#263238"/>
<path d="M51.74 290.485C51.675 290.55 50.895 289.965 49.79 289.64C48.685 289.315 47.71 289.38 47.71 289.25C47.71 289.185 48.685 288.925 49.92 289.25C51.025 289.705 51.805 290.42 51.74 290.485Z" fill="#263238"/>
<path d="M52.8446 285.87C52.7796 285.935 51.9996 285.22 50.8296 284.96C49.5946 284.7 48.6196 285.09 48.6196 284.96C48.6196 284.895 48.8146 284.765 49.2696 284.635C49.6596 284.505 50.3096 284.44 50.9596 284.57C51.6096 284.7 52.1296 285.025 52.4546 285.285C52.7796 285.61 52.9096 285.87 52.8446 285.87Z" fill="#263238"/>
<path d="M51.0896 284.115C51.0896 284.115 51.0896 283.92 51.2196 283.53C51.3496 283.14 51.6096 282.62 52.0646 282.1C52.3246 281.84 52.5846 281.515 53.0396 281.385C53.2996 281.32 53.6246 281.45 53.7546 281.71C53.8846 281.97 53.8846 282.23 53.8196 282.49C53.5596 283.465 52.4546 284.245 51.2846 284.115C50.1146 283.985 49.2696 283.075 49.0096 282.1C48.9446 281.84 48.9446 281.58 49.1396 281.32C49.3346 281.06 49.6596 281.06 49.9196 281.125C50.3746 281.32 50.5696 281.645 50.8296 281.905C51.2846 282.49 51.4796 283.01 51.6096 283.4C51.7396 283.79 51.7396 283.985 51.7396 283.985C51.6746 283.985 51.5446 283.14 50.6346 282.035C50.4396 281.775 50.1796 281.45 49.8546 281.385C49.7246 281.32 49.5296 281.385 49.4646 281.45C49.3996 281.58 49.3346 281.775 49.3996 281.97C49.5946 282.75 50.3746 283.595 51.4146 283.725C52.3896 283.855 53.3646 283.205 53.5596 282.36C53.6246 282.165 53.6246 281.97 53.5596 281.84C53.4946 281.71 53.3646 281.645 53.1696 281.645C52.8446 281.71 52.5196 281.97 52.3246 282.23C51.2846 283.205 51.1546 284.115 51.0896 284.115Z" fill="#263238"/>
<g opacity="0.3">
<path opacity="0.3" d="M50.8947 275.21L50.1797 278.85L61.6847 280.8L62.5947 277.615L51.3497 273.52L50.8947 275.21Z" fill="black"/>
</g>
<path d="M102.7 279.37L101.725 292.045C101.725 292.045 114.335 297.245 114.335 299.65L89.6348 298.675L90.2848 278.85L102.7 279.37Z" fill="#9A0000"/>
<g opacity="0.6">
<g opacity="0.6">
<path opacity="0.6" d="M94.1847 290.68C93.7297 290.81 93.3397 291.33 93.4697 291.785C93.5347 292.24 94.1197 292.63 94.5747 292.5C95.0297 292.37 95.4847 291.785 95.3547 291.33C95.2247 290.875 94.5747 290.485 94.1197 290.68" fill="white"/>
</g>
</g>
<g opacity="0.6">
<path opacity="0.6" d="M89.6997 298.675L89.8297 296.66L113.425 298.35C113.425 298.35 114.53 298.87 114.335 299.65L89.6997 298.675Z" fill="white"/>
</g>
<path d="M102.18 291.98C102.18 292.11 101.595 292.11 100.945 292.5C100.36 292.825 99.9698 293.345 99.9048 293.28C99.7748 293.28 99.9698 292.565 100.75 292.11C101.465 291.655 102.18 291.85 102.18 291.98Z" fill="#263238"/>
<path d="M104.715 293.15C104.715 293.28 104.195 293.475 103.805 293.93C103.35 294.385 103.22 294.97 103.09 294.97C102.96 294.97 102.895 294.255 103.48 293.67C104 293.02 104.715 293.02 104.715 293.15Z" fill="#263238"/>
<path d="M106.08 296.27C105.95 296.27 105.82 295.685 106.145 295.035C106.47 294.385 107.055 294.125 107.12 294.255C107.185 294.385 106.795 294.71 106.535 295.23C106.21 295.75 106.21 296.27 106.08 296.27Z" fill="#263238"/>
<path d="M102.05 289.055C101.985 289.185 101.465 288.99 100.75 288.99C100.035 288.99 99.5148 289.185 99.4498 289.12C99.3848 289.055 99.9048 288.6 100.75 288.6C101.595 288.535 102.115 288.925 102.05 289.055Z" fill="#263238"/>
<g opacity="0.3">
<path opacity="0.3" d="M102.505 281.905L102.375 284.18L90.2197 283.595L90.3497 280.93L102.505 281.905Z" fill="black"/>
</g>
<path d="M102.18 286.455C102.18 286.52 101.725 286.585 100.945 286.39C100.555 286.325 100.1 286.195 99.6451 285.935C99.3851 285.805 99.1901 285.675 98.9301 285.545C98.8001 285.48 98.6701 285.415 98.5401 285.22C98.4101 285.09 98.3451 284.765 98.5401 284.57C98.6701 284.375 98.9301 284.31 99.0601 284.31C99.2551 284.31 99.3851 284.375 99.5151 284.375C99.7751 284.44 100.035 284.57 100.295 284.7C100.75 284.96 101.14 285.22 101.4 285.48C101.92 286 102.115 286.52 102.115 286.52C102.05 286.585 101.79 286.195 101.205 285.74C100.945 285.48 100.555 285.285 100.1 285.09C99.9051 285.025 99.6451 284.895 99.3851 284.83C99.1251 284.765 98.9301 284.765 98.8651 284.83C98.8651 284.895 98.8651 284.895 98.8651 284.96C98.9301 285.025 98.9951 285.09 99.1251 285.155C99.3201 285.285 99.5801 285.415 99.7751 285.545C100.165 285.805 100.62 285.935 100.945 286.065C101.725 286.39 102.245 286.39 102.18 286.455Z" fill="#263238"/>
<path d="M102.05 286.65C101.985 286.65 101.79 286.195 101.79 285.415C101.79 285.025 101.855 284.57 101.985 284.05C102.05 283.79 102.18 283.53 102.31 283.335C102.44 283.075 102.635 282.75 103.09 282.75C103.35 282.75 103.545 282.945 103.61 283.14C103.675 283.335 103.675 283.465 103.74 283.595C103.805 283.855 103.74 284.18 103.74 284.44C103.61 284.96 103.415 285.415 103.155 285.675C102.635 286.325 102.115 286.39 102.115 286.39C102.05 286.325 102.505 286.13 102.895 285.48C103.09 285.155 103.285 284.765 103.35 284.31C103.415 284.05 103.415 283.855 103.35 283.595C103.35 283.335 103.22 283.14 103.155 283.14C103.025 283.14 102.83 283.335 102.7 283.53C102.57 283.725 102.44 283.985 102.375 284.18C102.18 284.635 102.115 285.025 102.115 285.415C101.985 286.195 102.115 286.65 102.05 286.65Z" fill="#263238"/>
<path d="M77.155 142.545C77.155 142.545 73.255 142.74 70.655 156.065C68.055 169.39 48.23 277.485 48.23 277.485L62.595 277.615L89.7 174.85L87.88 280.8L102.505 281.905C102.505 281.905 113.49 164.71 113.555 157.885C113.685 149.37 108.81 140.79 108.81 140.79L77.155 142.545Z" fill="#263238"/>
<path d="M96.9151 141.375C96.9801 141.375 95.4851 149.045 93.6001 158.405C91.6501 167.765 90.025 175.37 89.96 175.37C89.895 175.37 91.3901 167.7 93.2751 158.34C95.1601 148.98 96.8501 141.375 96.9151 141.375Z" fill="#455A64"/>
<path d="M99.19 143.325C99.19 143.26 99.58 143.195 100.035 143.585C100.23 143.78 100.425 144.105 100.425 144.495C100.425 144.885 100.1 145.34 99.71 145.47C99.32 145.665 98.8 145.6 98.475 145.34C98.15 145.08 98.085 144.69 98.085 144.43C98.085 143.845 98.475 143.65 98.475 143.65C98.54 143.715 98.28 143.91 98.28 144.43C98.28 144.69 98.41 144.95 98.605 145.145C98.8 145.34 99.19 145.34 99.515 145.21C99.84 145.08 100.035 144.82 100.1 144.495C100.1 144.235 99.97 143.91 99.84 143.78C99.515 143.325 99.125 143.39 99.19 143.325Z" fill="#455A64"/>
<path d="M98.54 148.59C98.54 148.525 98.93 148.59 99.19 149.11C99.32 149.37 99.32 149.695 99.125 150.085C98.93 150.41 98.475 150.67 98.085 150.605C97.63 150.605 97.24 150.28 97.11 149.89C96.98 149.5 97.11 149.175 97.24 148.915C97.565 148.46 97.955 148.46 97.955 148.46C97.955 148.525 97.63 148.59 97.435 148.98C97.37 149.175 97.305 149.435 97.435 149.695C97.5 149.955 97.825 150.15 98.15 150.15C98.475 150.15 98.8 150.02 98.93 149.825C99.06 149.565 99.06 149.305 98.995 149.11C98.8 148.785 98.54 148.655 98.54 148.59Z" fill="#455A64"/>
<path d="M84.7599 143.455C84.7599 143.455 84.7599 143.715 84.5649 144.105C84.4349 144.495 84.1749 145.145 83.7849 145.795C83.0699 147.225 81.6399 148.98 79.6249 150.345C77.6099 151.71 75.3999 152.23 73.7749 152.36C72.9949 152.425 72.3449 152.425 71.8899 152.36C71.4349 152.295 71.1749 152.295 71.2399 152.23C71.2399 152.165 72.2149 152.295 73.7749 152.1C75.3349 151.905 77.4799 151.32 79.4299 150.02C81.4449 148.72 82.8099 146.965 83.5899 145.665C84.4349 144.365 84.6949 143.39 84.7599 143.455Z" fill="#455A64"/>
<path d="M112.71 152.945C112.71 152.945 112.515 152.88 112.255 152.685C111.995 152.49 111.605 152.23 111.215 151.775C110.37 150.995 109.395 149.63 108.745 148.005C108.095 146.315 107.965 144.69 108.03 143.52C108.03 142.935 108.095 142.48 108.225 142.155C108.29 141.83 108.355 141.7 108.355 141.7C108.42 141.7 108.29 142.415 108.29 143.52C108.29 144.625 108.485 146.25 109.07 147.875C109.72 149.5 110.63 150.8 111.345 151.645C112.19 152.425 112.775 152.88 112.71 152.945Z" fill="#455A64"/>
<path d="M71.4347 116.87L77.8047 117.195C78.1947 119.275 79.6247 122.46 79.6247 122.46C84.7597 113.555 88.7247 101.595 89.7647 96.7848C89.6347 96.3298 89.4397 95.7448 89.2447 95.1598C88.9847 94.4448 89.1797 93.2098 89.3097 92.4298C89.5047 91.3898 89.7647 89.8948 89.8947 89.2448C90.1547 87.2298 90.4797 86.9048 91.1947 87.0998C92.1697 87.4248 90.8047 92.8198 91.5847 92.8848C92.0397 92.9498 92.5597 91.1298 92.6897 89.5698C92.8197 88.0748 93.5347 83.3948 94.0547 83.0698C94.7697 82.6148 95.4197 83.3298 95.2247 84.8248C95.0297 86.3198 94.7697 90.9348 95.6147 90.9348C96.3947 90.9998 97.0447 83.2648 97.0447 83.2648C97.0447 83.2648 96.9147 81.5748 97.8247 81.6398C99.5147 81.7048 98.2147 89.8298 98.0197 90.6098C97.8897 91.1298 98.7997 91.2598 98.8647 90.6748C98.9297 90.0898 99.3197 82.9398 101.075 83.0048C102.375 83.0698 100.035 89.6998 100.815 91.2598C101.53 92.8198 102.05 85.9948 103.285 86.1248C103.74 86.1898 104.065 86.2548 103.22 90.0898C102.765 92.1698 101.4 95.9398 100.23 99.1248C98.2797 109.785 89.5697 143.91 75.9847 137.67C68.3797 134.16 64.8047 116.87 64.8047 116.87H71.4347Z" fill="#FFBE9D"/>
<path d="M100.23 99.2547C100.23 99.2547 100.23 99.1897 100.295 98.9947C100.36 98.7997 100.425 98.6047 100.555 98.3447C100.75 97.7597 101.075 96.8497 101.465 95.7447C101.855 94.6397 102.31 93.2747 102.765 91.6497C103.025 90.8697 103.22 89.9597 103.35 89.0497C103.415 88.5947 103.545 88.0747 103.61 87.6197C103.61 87.3597 103.675 87.0997 103.675 86.9047C103.675 86.6447 103.61 86.4497 103.415 86.4497C103.22 86.3847 103.09 86.5797 102.895 86.7747C102.765 86.9697 102.635 87.2297 102.57 87.4897C102.375 88.0097 102.245 88.5297 102.115 89.1147C101.985 89.6997 101.855 90.2197 101.66 90.8047C101.53 91.1297 101.53 91.3897 101.27 91.7147C101.205 91.7797 101.205 91.7797 101.075 91.8447C100.945 91.8447 100.88 91.8447 100.815 91.7797C100.75 91.7147 100.685 91.5847 100.62 91.5197C100.555 91.3247 100.49 91.1947 100.49 90.9997C100.36 89.6997 100.685 88.4647 100.88 87.0997C101.01 86.4497 101.14 85.7997 101.205 85.1497C101.27 84.8247 101.27 84.4997 101.27 84.1747C101.27 83.8497 101.205 83.4597 101.075 83.3947C100.88 83.3297 100.62 83.5247 100.425 83.7847C100.23 84.0447 100.1 84.3697 99.9698 84.6947C99.7748 85.3447 99.5798 86.0597 99.4498 86.7747C99.3198 87.4897 99.2548 88.2047 99.1248 88.9847C99.0598 89.3747 99.0598 89.6997 98.9948 90.0897L98.9298 90.6747C98.9298 90.8047 98.9298 91.1297 98.6698 91.3247C98.4748 91.5197 98.1498 91.5197 97.8898 91.3247C97.7598 91.2597 97.6948 91.1297 97.6298 90.9347C97.6298 90.8697 97.6298 90.8047 97.6298 90.7397V90.6097C97.6948 90.2197 97.7598 89.8297 97.8248 89.5047C97.9548 88.7247 98.0198 87.9447 98.0848 87.1647C98.1498 86.3847 98.2148 85.6047 98.2148 84.8247C98.2148 84.0447 98.2148 83.1997 97.9548 82.4847C97.8898 82.2897 97.7598 82.0947 97.6298 82.0297C97.4998 81.9647 97.3048 82.0297 97.1748 82.1597C96.9798 82.4847 96.9148 83.0047 96.9148 83.3947C96.7848 84.9547 96.5898 86.4497 96.3948 87.8797C96.2648 88.5947 96.1348 89.3747 96.0048 90.0897C95.9398 90.2847 95.8748 90.4797 95.8098 90.6097C95.7448 90.8047 95.6798 90.9997 95.4198 91.1947C95.2248 91.3247 95.0298 91.1947 94.9648 91.0647C94.8998 90.9347 94.8348 90.8697 94.7698 90.7397C94.7048 90.5447 94.6398 90.3497 94.6398 90.1547C94.4448 88.6597 94.5098 87.2947 94.5748 85.8647C94.5748 85.1497 94.7698 84.4997 94.7048 83.8497C94.6398 83.5247 94.5748 83.2647 94.3148 83.1347C94.1848 83.0697 94.1198 83.0697 93.9898 83.0697C93.9248 83.0697 93.8598 83.1347 93.7948 83.1347C93.7298 83.1997 93.7298 83.1347 93.7298 83.2647C93.4698 83.7847 93.3398 84.4347 93.2098 85.0847C93.0798 85.7347 92.9498 86.3197 92.8848 86.9047C92.7548 87.4897 92.6898 88.1397 92.6248 88.7247C92.5598 89.3097 92.4948 89.8947 92.3648 90.4797C92.2348 91.0647 92.1048 91.6497 91.9098 92.1697C91.8448 92.2997 91.7798 92.4297 91.7148 92.5597C91.6498 92.6897 91.5848 92.8197 91.3248 92.9497C91.1948 93.0147 91.0648 92.8847 90.9998 92.8197C90.9348 92.7547 90.9348 92.6247 90.8698 92.5597C90.8048 92.4297 90.8048 92.2347 90.8048 92.1047C90.8048 90.9997 90.9348 89.9597 90.9998 88.9847C90.9998 88.5297 91.0648 88.0097 90.9998 87.5547C90.9998 87.3597 90.9348 87.0997 90.8048 87.0347C90.6098 86.9697 90.4148 86.9047 90.2848 87.0347C90.0248 87.2297 89.8948 87.7497 89.8298 88.0747C89.7648 88.4647 89.6998 88.8547 89.6348 89.2447C89.3748 90.8047 89.0498 92.1047 88.9198 93.2097C88.8548 93.7297 88.8548 94.2497 88.9198 94.6397C88.9848 95.0297 89.1148 95.3547 89.2448 95.6797C89.3098 95.9397 89.3748 96.1347 89.4398 96.3297C89.5048 96.4597 89.5048 96.5247 89.5048 96.5247C89.5048 96.5247 89.4398 96.4597 89.4398 96.3297C89.3748 96.1997 89.3098 95.9397 89.2448 95.7447C89.1798 95.4847 89.0498 95.1597 88.9198 94.7047C88.8548 94.2497 88.8548 93.7947 88.9198 93.2097C89.0498 92.1047 89.3098 90.8047 89.5698 89.2447C89.6348 88.8547 89.6998 88.4647 89.7648 88.0097C89.8298 87.8147 89.8298 87.6197 89.9598 87.3597C90.0248 87.1647 90.1548 86.9047 90.3498 86.7747C90.6098 86.6447 90.8698 86.6447 91.1298 86.7747C91.4548 86.9697 91.4548 87.2297 91.5198 87.4897C91.5848 87.9447 91.5848 88.4647 91.5198 88.9847C91.4548 89.9597 91.3248 90.9997 91.3248 92.0397C91.3248 92.1697 91.3248 92.2997 91.3898 92.4297C91.3898 92.5597 91.4548 92.6247 91.4548 92.5597C91.4548 92.5597 91.5848 92.4297 91.6498 92.3647C91.7148 92.2347 91.7798 92.1047 91.8448 91.9747C92.0398 91.4547 92.1698 90.9347 92.2998 90.3497C92.4298 89.7647 92.4298 89.1797 92.4948 88.5947C92.5598 88.0097 92.6248 87.3597 92.7548 86.7747C92.8198 86.1897 92.9498 85.5397 93.0798 84.8897C93.2098 84.2397 93.3398 83.6547 93.5998 82.9397C93.5998 82.8747 93.7298 82.7447 93.8598 82.6797C93.9248 82.6147 94.0548 82.6147 94.1198 82.5497C94.3148 82.4847 94.5748 82.5497 94.7698 82.6797C95.1598 82.9397 95.2248 83.3297 95.2898 83.6547C95.3548 83.9797 95.3548 84.3697 95.2898 84.6947C95.2248 85.0197 95.2248 85.3447 95.2248 85.7347C95.1598 87.0997 95.0948 88.5297 95.2898 89.8947C95.2898 90.0897 95.3548 90.2197 95.4198 90.3497C95.4198 90.4147 95.4848 90.4797 95.4848 90.5447C95.4848 90.6747 95.4848 90.5447 95.4848 90.6097C95.4848 90.6097 95.4848 90.6097 95.4848 90.5447C95.5498 90.5447 95.6148 90.3497 95.6798 90.2197C95.7448 90.0897 95.8098 89.8947 95.8098 89.6997C96.0048 88.9847 96.1348 88.2697 96.1998 87.5547C96.3948 86.0597 96.5898 84.5647 96.7198 83.0697C96.7198 82.5497 96.7198 82.0297 97.0448 81.5097C97.2398 81.2497 97.6298 81.1197 97.9548 81.2497C98.2798 81.3797 98.4098 81.7047 98.5398 81.9647C98.7998 82.8097 98.7998 83.5897 98.7998 84.4347C98.7998 85.2147 98.7348 86.0597 98.6698 86.8397C98.6048 87.6197 98.4748 88.3997 98.4098 89.1797C98.3448 89.5697 98.2798 89.9597 98.2148 90.3497C98.1498 90.6097 98.1498 90.6097 98.2798 90.6747C98.3448 90.7397 98.5398 90.7397 98.6048 90.6747C98.6698 90.6097 98.6698 90.4797 98.7348 90.2847L98.7998 89.6997C98.8648 89.3097 98.8648 88.9197 98.9298 88.5947C98.9948 87.8797 99.1248 87.0997 99.2548 86.3847C99.3848 85.6697 99.5148 84.9547 99.7748 84.2397C99.9048 83.9147 100.035 83.5247 100.23 83.1997C100.36 83.0697 100.49 82.8747 100.62 82.7447C100.815 82.6147 101.01 82.5497 101.27 82.6147C101.53 82.7447 101.595 83.0047 101.595 83.1997C101.595 83.3947 101.66 83.5897 101.66 83.7197C101.66 84.1097 101.595 84.4347 101.595 84.7597C101.53 85.4097 101.4 86.1247 101.27 86.7747C101.075 88.0747 100.75 89.3747 100.88 90.5447C100.88 90.6747 100.945 90.8047 101.01 90.9347C101.01 90.9997 101.075 91.0647 101.075 91.0647C101.075 91.1297 101.075 91.0647 101.075 91.0647C101.075 90.9997 101.075 91.0647 101.075 90.9997C101.205 90.8047 101.335 90.4797 101.4 90.2197C101.595 89.6347 101.725 89.0497 101.855 88.5297C101.985 87.9447 102.18 87.4247 102.31 86.9047C102.375 86.6447 102.505 86.3847 102.635 86.1247C102.7 85.9947 102.765 85.8647 102.96 85.7997C103.025 85.7347 103.09 85.7347 103.22 85.6697C103.35 85.6697 103.415 85.6697 103.48 85.6697C103.61 85.6697 103.87 85.7997 103.87 85.9947C103.935 86.1247 103.935 86.3197 103.935 86.4497C103.935 86.7097 103.935 86.9697 103.87 87.2297C103.805 87.7497 103.74 88.2047 103.61 88.6597C103.415 89.5697 103.22 90.4797 102.96 91.2597C102.505 92.8847 101.985 94.2497 101.595 95.3547C101.205 96.4597 100.88 97.3047 100.62 97.8897C100.49 98.1497 100.425 98.4097 100.36 98.5397C100.295 99.1897 100.23 99.2547 100.23 99.2547Z" fill="#EB996E"/>
<path d="M64.8047 117.585C66.0397 121.94 68.4447 128.7 71.0447 135.785C71.4347 136.825 72.8647 136.89 73.3197 135.915L79.6897 122.46C79.6897 122.46 78.1297 111.41 78.2597 111.8C78.3897 112.19 65.1297 113.23 65.1297 113.23L64.8047 117.585Z" fill="#09006B"/>
<path d="M79.1047 115.44C79.1047 115.505 78.3247 115.7 77.0247 116.22C75.7897 116.675 74.0347 117.455 72.2797 118.495C70.5247 119.535 69.0947 120.705 68.0547 121.615C67.0147 122.525 66.4947 123.11 66.4297 123.045C66.4297 123.045 66.5597 122.85 66.7547 122.59C67.0147 122.33 67.4047 121.875 67.8597 121.42C68.8347 120.445 70.2647 119.275 72.0847 118.17C73.8397 117.065 75.5947 116.35 76.8947 115.96C77.5447 115.765 78.0647 115.57 78.4547 115.505C78.9097 115.44 79.1047 115.375 79.1047 115.44Z" fill="#FAFAFA"/>
<path d="M81.6398 118.755C81.5748 118.755 81.1848 118.3 80.5998 117.39C80.0148 116.48 79.2998 115.18 78.6498 113.685C77.9998 112.19 77.6098 110.695 77.4148 109.655C77.2198 108.615 77.1548 107.9 77.1548 107.9C77.2198 107.9 77.3498 108.55 77.6098 109.59C77.8698 110.63 78.3248 112.06 78.9098 113.555C79.5598 115.05 80.2098 116.35 80.7948 117.26C81.3148 118.17 81.6398 118.755 81.6398 118.755Z" fill="#263238"/>
<path d="M85.865 59.2151C83.655 62.7901 83.2 67.4701 84.63 71.4351C85.28 73.1901 86.32 75.0101 86.125 76.8951C85.93 78.8451 84.435 80.6651 84.955 82.5501C85.28 83.6551 86.19 84.5001 86.58 85.6051C87.035 86.9051 86.58 88.2701 86.385 89.6351C85.865 93.0151 86.97 96.4601 87.23 99.9051C87.49 103.35 86.58 107.38 83.525 108.875C82.615 109.33 81.38 109.46 80.6 108.745C79.625 107.835 79.885 106.275 80.145 104.975C82.81 91.9751 74.555 79.3001 76.44 66.1051C76.765 64.0251 77.935 60.4501 79.43 58.9551C80.925 57.4601 85.15 57.6551 86.58 59.2151" fill="#263238"/>
<path d="M73.0596 96.9149C73.0596 96.9149 73.4496 96.4599 74.0346 95.5499C74.6196 94.6399 75.3346 93.2099 75.7246 91.3249C75.9196 90.3499 75.9846 89.3099 75.9196 88.1399C75.8546 86.9699 75.7246 85.7349 75.7896 84.4349C75.7896 83.7849 75.9846 83.1349 76.1796 82.4199C76.4396 81.7699 76.6996 81.1199 77.0896 80.5349C77.8046 79.2999 78.7146 78.1299 79.5596 76.9599C80.4046 75.7249 81.1196 74.4249 81.3146 73.0599C81.5746 71.6949 81.3146 70.3299 81.1196 69.0949C80.9246 67.7949 80.7296 66.5599 80.8596 65.3899C80.9246 64.2199 81.1846 63.1799 81.5096 62.2049C82.1596 60.3199 83.0696 59.0199 83.7846 58.1749C84.1746 57.7849 84.4346 57.4599 84.6946 57.2649C84.8896 57.0699 85.0196 57.0049 85.0196 57.0049C85.0196 57.0049 84.5646 57.4599 83.9146 58.3049C83.2646 59.1499 82.3546 60.5149 81.7696 62.3349C81.4446 63.2449 81.2496 64.2849 81.1846 65.4549C81.1196 66.6249 81.2496 67.7949 81.5096 69.0949C81.7046 70.3949 81.9646 71.7599 81.7696 73.1899C81.5096 74.6199 80.7946 75.9849 79.9496 77.2199C79.1046 78.4549 78.1946 79.6249 77.4796 80.7949C77.1546 81.3799 76.8296 82.0299 76.6346 82.6149C76.4396 83.2649 76.3096 83.9149 76.2446 84.4999C76.1796 85.7999 76.3096 87.0349 76.3746 88.1399C76.4396 89.3099 76.3096 90.4149 76.1146 91.3899C75.7246 93.3399 74.9446 94.7699 74.2946 95.6799C73.9696 96.1349 73.7096 96.4599 73.5146 96.6549C73.1896 96.8499 73.0596 96.9149 73.0596 96.9149Z" fill="#455A64"/>
<path d="M66.8848 97.89C66.8848 97.89 66.9498 97.76 67.0798 97.435C67.2098 97.11 67.4698 96.72 67.7298 96.2C68.2498 95.16 69.0948 93.6 69.8748 91.65C70.6548 89.7 71.4348 87.23 71.4348 84.435C71.4348 83.72 71.3698 83.005 71.3048 82.29C71.1748 81.575 71.0448 80.86 70.9148 80.08C70.7848 79.3 70.7848 78.52 70.9798 77.675C71.1748 76.895 71.6948 76.115 72.2798 75.595C73.5148 74.49 75.0098 73.775 75.7248 72.475C76.5048 71.175 76.6998 69.68 76.8948 68.315C77.0898 66.885 77.3498 65.585 77.8048 64.415C78.2598 63.245 78.8448 62.205 79.4298 61.295C80.6648 59.54 82.0298 58.435 83.0698 57.785C83.5898 57.46 83.9798 57.2 84.2398 57.07C84.4998 56.94 84.6948 56.875 84.6948 56.875C84.6948 56.94 84.1098 57.2 83.1348 57.85C82.1598 58.565 80.8598 59.67 79.6248 61.425C79.0398 62.27 78.4548 63.31 78.0648 64.48C77.6098 65.65 77.3498 66.95 77.2198 68.38C77.0248 69.745 76.8948 71.305 76.0498 72.67C75.2048 74.1 73.7098 74.815 72.5398 75.92C71.9548 76.44 71.4998 77.09 71.3048 77.87C71.1098 78.585 71.1748 79.365 71.2398 80.145C71.3698 80.925 71.4998 81.64 71.6298 82.355C71.7598 83.07 71.7598 83.85 71.7598 84.565C71.6948 87.425 70.9148 89.895 70.0698 91.845C69.2248 93.795 68.3798 95.355 67.7948 96.395C67.5348 96.915 67.2748 97.305 67.0798 97.565C67.0148 97.76 66.8848 97.89 66.8848 97.89Z" fill="#455A64"/>
<path d="M281.969 281.58C281.969 281.58 282.034 281.515 282.099 281.32C282.164 281.125 282.294 280.865 282.489 280.54C282.814 279.825 283.204 278.785 283.594 277.42C284.309 274.625 284.569 270.335 283.529 265.265C283.009 262.73 282.229 260 281.254 257.14C280.279 254.215 279.174 251.16 278.264 247.845C277.354 244.53 276.639 240.955 276.769 237.185C276.899 233.415 278.004 229.645 279.239 225.875C280.474 222.105 281.709 218.465 282.099 214.76C282.554 211.055 281.709 207.48 280.084 204.49C278.459 201.5 276.379 198.9 274.884 196.3C273.324 193.635 272.349 190.905 271.764 188.37C270.594 183.235 270.984 178.945 271.569 176.15C272.154 173.29 272.869 171.86 272.869 171.86C272.869 171.86 272.869 171.99 272.804 172.12C272.739 172.315 272.674 172.575 272.544 172.965C272.349 173.68 272.024 174.785 271.764 176.215C271.244 179.075 270.919 183.3 272.089 188.37C272.674 190.905 273.649 193.57 275.209 196.17C276.769 198.77 278.784 201.37 280.474 204.36C282.164 207.35 283.009 211.12 282.554 214.825C282.164 218.595 280.864 222.3 279.694 226.005C278.459 229.775 277.354 233.48 277.224 237.185C277.094 240.89 277.744 244.465 278.654 247.78C279.564 251.095 280.669 254.15 281.579 257.075C282.554 260 283.334 262.73 283.789 265.265C284.829 270.4 284.504 274.69 283.789 277.485C283.399 278.915 282.944 279.955 282.619 280.605C282.424 280.93 282.294 281.19 282.229 281.385C282.034 281.515 281.969 281.58 281.969 281.58Z" fill="#263238"/>
<path d="M276.965 198.835C276.965 198.835 273.845 188.89 279.435 183.04C279.63 182.845 279.955 182.91 280.02 183.235C280.28 184.86 280.67 189.865 276.965 198.835Z" fill="#007A22"/>
<path d="M278.785 186.355C278.85 186.355 278.72 187.07 278.59 188.175C278.395 189.41 278.135 190.905 277.875 192.595C277.615 194.22 277.355 195.715 277.16 196.95C276.965 198.055 276.9 198.77 276.835 198.77C276.77 198.77 276.77 198.055 276.9 196.95C277.03 195.845 277.225 194.22 277.485 192.53C277.745 190.84 278.07 189.28 278.33 188.175C278.59 187.07 278.72 186.355 278.785 186.355Z" fill="#263238"/>
<path d="M280.605 222.3C280.605 222.3 282.49 212.03 290.16 209.495C290.42 209.43 290.68 209.625 290.615 209.95C290.095 211.51 288.08 216.125 280.605 222.3Z" fill="#007A22"/>
<path d="M288.08 212.16C288.145 212.225 287.69 212.745 287.04 213.655C286.26 214.695 285.35 215.865 284.375 217.23C283.4 218.53 282.49 219.765 281.71 220.805C281.06 221.715 280.605 222.3 280.54 222.235C280.475 222.235 280.865 221.585 281.45 220.61C282.1 219.635 283.01 218.335 284.05 216.97C285.09 215.605 286.065 214.37 286.845 213.46C287.56 212.615 288.015 212.095 288.08 212.16Z" fill="#263238"/>
<path d="M278.525 247.975C278.525 247.975 277.355 237.64 283.985 232.96C284.245 232.765 284.505 232.96 284.505 233.22C284.505 234.91 283.92 239.915 278.525 247.975Z" fill="#007A22"/>
<path d="M282.75 236.145C282.815 236.145 282.555 236.86 282.165 237.9C281.71 239.07 281.19 240.5 280.605 242.06C280.02 243.62 279.5 245.05 279.11 246.22C278.72 247.26 278.525 247.975 278.46 247.91C278.395 247.91 278.525 247.195 278.85 246.09C279.175 244.985 279.695 243.49 280.28 241.865C280.865 240.24 281.45 238.745 281.905 237.705C282.36 236.73 282.685 236.08 282.75 236.145Z" fill="#263238"/>
<path d="M284.31 273.845C284.31 273.845 283.53 263.445 290.29 259.025C290.55 258.895 290.81 259.025 290.81 259.35C290.745 261.04 289.965 265.98 284.31 273.845Z" fill="#007A22"/>
<path d="M288.925 262.145C288.99 262.145 288.73 262.86 288.275 263.9C287.82 265.07 287.235 266.5 286.585 267.995C285.935 269.555 285.415 270.92 284.895 272.09C284.505 273.13 284.245 273.78 284.18 273.78C284.115 273.78 284.31 273.065 284.635 271.96C284.96 270.855 285.545 269.425 286.195 267.8C286.845 266.175 287.495 264.745 288.015 263.705C288.535 262.73 288.86 262.145 288.925 262.145Z" fill="#263238"/>
<path d="M272.48 190.06C272.48 190.06 263.25 185.25 263.055 177.19C263.055 176.93 263.38 176.735 263.575 176.865C264.94 177.84 268.775 181.09 272.48 190.06Z" fill="#007A22"/>
<path d="M264.94 179.985C265.005 179.985 265.395 180.505 266.11 181.415C266.89 182.455 267.735 183.69 268.71 184.99C269.685 186.355 270.595 187.525 271.31 188.565C271.96 189.475 272.415 190.06 272.35 190.06C272.285 190.125 271.83 189.605 271.05 188.695C270.335 187.85 269.36 186.55 268.32 185.185C267.28 183.755 266.435 182.455 265.785 181.48C265.265 180.635 264.94 179.985 264.94 179.985Z" fill="#263238"/>
<path d="M282.36 211.445C282.36 211.445 272.87 207.22 272.155 199.16C272.155 198.9 272.415 198.705 272.675 198.835C274.17 199.68 278.135 202.735 282.36 211.445Z" fill="#007A22"/>
<path d="M274.3 201.825C274.365 201.76 274.82 202.345 275.535 203.19C276.315 204.165 277.29 205.335 278.33 206.635C279.37 207.935 280.345 209.105 281.125 210.08C281.84 210.925 282.295 211.51 282.295 211.51C282.23 211.575 281.71 211.055 280.93 210.275C280.15 209.43 279.11 208.26 278.005 206.895C276.9 205.53 275.925 204.295 275.275 203.385C274.625 202.41 274.235 201.825 274.3 201.825Z" fill="#263238"/>
<path d="M276.9 235.3C276.9 235.3 270.335 227.175 273.455 219.7C273.585 219.44 273.91 219.375 274.04 219.635C274.95 221.065 277.095 225.55 276.9 235.3Z" fill="#007A22"/>
<path d="M274.105 223.015C274.17 223.015 274.3 223.665 274.56 224.77C274.82 226.005 275.145 227.5 275.535 229.125C275.86 230.75 276.185 232.245 276.51 233.48C276.77 234.585 276.9 235.3 276.835 235.3C276.77 235.3 276.51 234.65 276.185 233.545C275.86 232.44 275.47 230.945 275.145 229.19C274.755 227.5 274.495 225.94 274.3 224.835C274.105 223.73 274.04 223.015 274.105 223.015Z" fill="#263238"/>
<path d="M283.4 263.315C283.4 263.315 273.975 258.895 273.455 250.835C273.455 250.575 273.715 250.38 273.975 250.51C275.34 251.42 279.305 254.54 283.4 263.315Z" fill="#007A22"/>
<path d="M275.469 253.565C275.534 253.565 275.989 254.085 276.704 254.93C277.484 255.905 278.459 257.14 279.434 258.44C280.474 259.74 281.384 260.91 282.229 261.885C282.944 262.795 283.399 263.315 283.334 263.38C283.269 263.445 282.749 262.925 282.034 262.08C281.254 261.235 280.214 260.065 279.174 258.7C278.069 257.335 277.159 256.1 276.509 255.125C275.794 254.15 275.404 253.565 275.469 253.565Z" fill="#263238"/>
<path d="M302.185 222.365C302.185 222.365 302.185 222.43 302.185 222.625C302.185 222.82 302.185 223.015 302.185 223.275C302.185 223.925 302.12 224.77 302.055 225.81C301.925 228.02 301.795 231.14 301.535 234.845C300.885 238.615 298.935 242.775 296.335 246.87C294.45 249.86 292.435 252.59 290.745 255.125C289.055 257.66 287.56 260 286.585 262.08C285.545 264.16 284.96 265.915 284.635 267.15C284.44 267.8 284.375 268.255 284.245 268.58C284.18 268.905 284.115 269.1 284.115 269.1C284.115 269.1 284.115 268.905 284.18 268.58C284.245 268.255 284.31 267.735 284.505 267.085C284.83 265.85 285.35 264.03 286.39 261.95C287.365 259.87 288.795 257.465 290.55 254.93C292.24 252.395 294.255 249.665 296.075 246.675C298.61 242.645 300.56 238.55 301.275 234.78C301.535 231.075 301.73 227.955 301.925 225.745C301.99 224.705 302.055 223.86 302.12 223.21C302.12 222.95 302.185 222.755 302.185 222.56C302.185 222.43 302.185 222.365 302.185 222.365Z" fill="#263238"/>
<path d="M296.595 246.025C296.595 246.025 300.625 236.405 295.555 230.1C295.36 229.905 295.035 229.97 294.97 230.23C294.515 231.855 293.67 236.795 296.595 246.025Z" fill="#007A22"/>
<path d="M295.815 233.48C295.88 233.48 296.01 234.195 296.14 235.3C296.27 236.405 296.465 237.965 296.595 239.72C296.725 241.475 296.79 243.035 296.79 244.14C296.79 245.31 296.725 245.96 296.66 245.96C296.595 245.96 296.595 245.245 296.465 244.14C296.4 242.84 296.27 241.345 296.14 239.72C296.01 238.095 295.945 236.535 295.815 235.3C295.815 234.195 295.815 233.48 295.815 233.48Z" fill="#263238"/>
<g opacity="0.3">
<g opacity="0.3">
<path opacity="0.3" d="M296.595 246.025C296.595 246.025 300.625 236.405 295.555 230.1C295.36 229.905 295.035 229.97 294.97 230.23C294.515 231.855 293.67 236.795 296.595 246.025Z" fill="black"/>
</g>
</g>
<path d="M284.18 269.23C284.18 269.23 287.365 259.285 281.84 253.435C281.645 253.24 281.32 253.305 281.255 253.63C280.93 255.255 280.54 260.26 284.18 269.23Z" fill="#007A22"/>
<path d="M282.425 256.75C282.49 256.75 282.685 257.4 282.88 258.57C283.14 259.675 283.4 261.235 283.66 262.925C283.92 264.615 284.115 266.24 284.18 267.345C284.245 268.515 284.245 269.165 284.245 269.165C284.18 269.165 284.115 268.45 283.92 267.345C283.725 266.11 283.53 264.615 283.27 262.925C283.01 261.3 282.815 259.805 282.62 258.505C282.49 257.465 282.36 256.75 282.425 256.75Z" fill="#263238"/>
<g opacity="0.3">
<g opacity="0.3">
<path opacity="0.3" d="M284.18 269.23C284.18 269.23 287.365 259.285 281.84 253.435C281.645 253.24 281.32 253.305 281.255 253.63C280.93 255.255 280.54 260.26 284.18 269.23Z" fill="black"/>
</g>
</g>
<path d="M301.665 234.26C301.665 234.26 310.18 228.28 309.335 220.285C309.335 220.025 308.945 219.895 308.75 220.09C307.515 221.195 304.2 224.9 301.665 234.26Z" fill="#007A22"/>
<g opacity="0.3">
<g opacity="0.3">
<path opacity="0.3" d="M301.665 234.26C301.665 234.26 310.18 228.28 309.335 220.285C309.335 220.025 308.945 219.895 308.75 220.09C307.515 221.195 304.2 224.9 301.665 234.26Z" fill="black"/>
</g>
</g>
<path d="M307.775 223.275C307.84 223.275 307.58 223.925 307.06 224.965C306.605 226.005 305.89 227.37 305.045 228.93C304.2 230.49 303.42 231.79 302.835 232.765C302.25 233.74 301.795 234.26 301.73 234.26C301.665 234.26 302.055 233.61 302.575 232.635C303.16 231.53 303.94 230.165 304.72 228.735C305.5 227.305 306.215 225.94 306.865 224.835C307.385 223.86 307.775 223.275 307.775 223.275Z" fill="#263238"/>
<path d="M287.625 259.415C287.625 259.415 297.895 257.79 300.69 250.25C300.755 249.99 300.56 249.73 300.3 249.795C298.675 250.25 293.995 252.135 287.625 259.415Z" fill="#007A22"/>
<g opacity="0.3">
<g opacity="0.3">
<path opacity="0.3" d="M287.625 259.415C287.625 259.415 297.895 257.79 300.69 250.25C300.755 249.99 300.56 249.73 300.3 249.795C298.675 250.25 293.995 252.135 287.625 259.415Z" fill="black"/>
</g>
</g>
<path d="M297.959 252.2C298.024 252.265 297.439 252.72 296.594 253.435C295.684 254.15 294.449 255.125 293.019 256.1C291.589 257.14 290.289 257.985 289.314 258.57C288.339 259.155 287.689 259.48 287.689 259.415C287.689 259.35 288.209 258.96 289.184 258.31C290.224 257.595 291.459 256.685 292.824 255.775C294.189 254.8 295.424 253.955 296.464 253.175C297.374 252.59 297.959 252.2 297.959 252.2Z" fill="#263238"/>
<path d="M277.81 278.33L274.82 298.61H293.54L291.07 278.33H277.81Z" fill="#455A64"/>
<path d="M291.85 284.635C291.85 284.765 288.47 284.83 284.31 284.83C280.15 284.83 276.77 284.765 276.77 284.635C276.77 284.505 280.15 284.44 284.31 284.44C288.47 284.44 291.85 284.505 291.85 284.635Z" fill="#263238"/>
<path d="M292.24 286.26C292.24 286.39 288.73 286.455 284.44 286.455C280.15 286.455 276.64 286.39 276.64 286.26C276.64 286.13 280.15 286.065 284.44 286.065C288.73 286.065 292.24 286.13 292.24 286.26Z" fill="#263238"/>
<path d="M219.44 82.2249C219.44 82.2249 219.245 82.2249 218.92 82.2249C218.595 82.2249 218.075 82.1599 217.425 82.2249C216.125 82.2899 214.175 82.5499 211.9 83.5249C209.625 84.4999 206.96 86.1899 204.88 88.9849C203.84 90.4149 202.93 92.1049 202.41 93.9899C201.89 95.9399 201.695 98.0199 201.955 100.23C202.215 102.44 202.93 104.715 204.1 106.795C204.685 107.835 205.4 108.81 206.31 109.72C207.155 110.63 208.195 111.475 209.3 112.06C210.405 112.645 211.705 113.035 213.07 113.035C214.37 112.97 215.735 112.515 216.71 111.54C217.685 110.565 218.14 109.2 218.14 107.77C218.14 106.34 217.685 104.975 216.84 103.805C215.15 101.465 212.42 99.8399 209.495 98.9949C206.57 98.1499 203.32 98.1499 200.265 98.8649C198.705 99.2549 197.21 99.8399 195.845 100.62C194.415 101.4 193.18 102.44 192.01 103.61C191.75 103.935 191.425 104.195 191.23 104.52L190.515 105.495C190.06 106.21 189.67 106.925 189.345 107.64C188.63 109.135 188.175 110.76 187.915 112.45C187.46 115.765 187.85 119.21 189.215 122.2C190.515 125.19 192.725 127.79 195.52 129.35C196.885 130.13 198.445 130.585 199.94 130.715C201.5 130.78 202.995 130.39 204.295 129.675C205.595 128.895 206.7 127.79 207.285 126.425C207.87 125.06 207.87 123.5 207.35 122.2C206.895 120.835 205.985 119.665 204.88 118.755C203.84 117.845 202.605 117.13 201.305 116.675C198.705 115.83 195.91 115.895 193.375 116.545C190.84 117.195 188.63 118.495 186.875 120.185C185.12 121.875 183.885 123.89 183.17 125.97C181.675 130.13 182.065 134.42 183.365 137.67C184.665 140.92 186.81 143.26 188.695 144.82C190.645 146.38 192.4 147.225 193.635 147.68C194.22 147.94 194.74 148.07 195.065 148.2C195.39 148.33 195.52 148.33 195.52 148.33C195.52 148.33 195.325 148.265 195 148.2C194.675 148.135 194.22 147.94 193.57 147.745C192.335 147.29 190.58 146.445 188.565 144.95C186.615 143.39 184.47 141.05 183.105 137.8C181.805 134.55 181.35 130.195 182.91 125.97C183.625 123.89 184.925 121.81 186.68 120.12C188.435 118.43 190.71 117.13 193.245 116.415C195.78 115.7 198.64 115.635 201.305 116.545C202.605 117 203.905 117.715 205.01 118.69C206.115 119.665 207.025 120.835 207.545 122.265C208.065 123.695 208.065 125.32 207.48 126.75C206.895 128.18 205.725 129.35 204.36 130.13C202.995 130.91 201.37 131.3 199.81 131.235C198.185 131.17 196.625 130.65 195.195 129.87C192.335 128.31 190.125 125.645 188.76 122.59C187.395 119.535 187.005 116.025 187.395 112.645C187.655 110.955 188.11 109.33 188.825 107.77C189.15 106.99 189.605 106.275 190.06 105.56L190.84 104.52C191.1 104.195 191.425 103.87 191.685 103.545C192.855 102.31 194.155 101.27 195.585 100.49C197.015 99.7099 198.575 99.1249 200.135 98.6699C203.255 97.8899 206.57 97.9549 209.56 98.7999C212.55 99.7099 215.28 101.27 217.035 103.74C217.88 104.975 218.4 106.405 218.4 107.9C218.4 109.33 217.88 110.825 216.84 111.865C215.8 112.905 214.37 113.36 213.005 113.425C211.64 113.49 210.275 113.1 209.105 112.45C207.935 111.8 206.895 110.955 206.05 110.045C205.14 109.135 204.425 108.095 203.84 107.055C202.605 104.91 201.955 102.635 201.63 100.425C201.37 98.2149 201.565 96.0049 202.085 94.0549C202.605 92.1049 203.515 90.4149 204.62 88.9849C206.765 86.1249 209.43 84.4349 211.77 83.5249C214.11 82.5499 216.06 82.3549 217.36 82.2899C218.01 82.2249 218.53 82.2899 218.855 82.2899C219.245 82.2249 219.44 82.2249 219.44 82.2249Z" fill="#263238"/>
<path d="M241.15 147.29H150.02V217.555H241.15V147.29Z" fill="#F7A654"/>
<path d="M150.02 147.29L166.855 163.02H256.425L241.15 147.29H150.02Z" fill="#F7A654"/>
<path d="M150.02 147.29C151.645 147.29 189.28 147.225 241.15 147.095H241.215L241.28 147.16C246.155 152.165 251.225 157.365 256.425 162.695C256.49 162.76 256.555 162.825 256.555 162.825L256.815 163.085H256.425C219.7 163.085 187.07 163.02 166.855 163.02H166.79C156.195 153.14 150.54 147.81 150.02 147.29C150.605 147.81 156.325 153.075 166.92 162.89H166.855C187.135 162.89 219.7 162.825 256.425 162.825L256.295 163.085C256.23 163.02 256.165 162.955 256.165 162.955C250.965 157.625 245.895 152.425 241.02 147.42L241.15 147.485C189.28 147.355 151.645 147.29 150.02 147.29Z" fill="#263238"/>
<path d="M177.385 179.725C176.41 179.725 175.565 180.57 175.5 181.545C175.5 182.52 176.345 183.43 177.32 183.43C178.295 183.495 179.205 182.65 179.27 181.675C179.335 180.7 178.49 179.79 177.515 179.725" fill="#263238"/>
<path d="M198.9 179.725C197.925 179.725 197.08 180.57 197.015 181.545C197.015 182.52 197.86 183.43 198.835 183.43C199.81 183.495 200.72 182.65 200.785 181.675C200.85 180.7 200.005 179.79 199.03 179.725" fill="#263238"/>
<path d="M199.03 196.56C198.965 196.625 198.77 194.805 197.21 192.53C196.43 191.425 195.325 190.19 193.765 189.215C192.27 188.24 190.32 187.525 188.24 187.46C186.16 187.395 184.21 188.045 182.65 188.89C181.09 189.8 179.855 190.905 179.01 192.01C177.32 194.22 177.06 195.975 176.995 195.975C176.995 195.975 176.995 195.845 177.06 195.65C177.125 195.455 177.19 195.13 177.32 194.805C177.58 194.09 178.035 193.05 178.88 191.88C179.725 190.775 180.895 189.54 182.52 188.63C184.145 187.72 186.16 187.07 188.305 187.135C190.45 187.2 192.465 187.915 193.96 188.955C195.52 189.995 196.69 191.23 197.405 192.4C198.185 193.57 198.575 194.61 198.77 195.39C198.9 195.78 198.9 196.04 198.965 196.235C199.03 196.43 199.03 196.56 199.03 196.56Z" fill="#263238"/>
<path opacity="0.5" d="M150.215 148.07L166.335 168.48H241.15V163.02H166.855L150.215 148.07Z" fill="black"/>
<path d="M223.145 217.425C223.08 217.425 222.95 205.205 222.95 190.125C222.95 175.045 223.015 162.825 223.145 162.825C223.21 162.825 223.34 175.045 223.34 190.125C223.34 205.205 223.275 217.425 223.145 217.425Z" fill="#263238"/>
<path d="M237.51 201.5H229.45V210.6H237.51V201.5Z" fill="#F5F5F5"/>
<path d="M150.02 147.29L131.3 163.02H150.02V147.29Z" fill="#F7A654"/>
<g opacity="0.4">
<path opacity="0.4" d="M150.02 147.29L131.3 163.02H150.02V147.29Z" fill="black"/>
</g>
<path d="M243.815 217.555H139.035V298.35H243.815V217.555Z" fill="#F7A654"/>
<path opacity="0.3" d="M243.815 217.555H139.035V298.35H243.815V217.555Z" fill="black"/>
<path d="M217.555 297.83C217.49 297.83 217.36 279.825 217.36 257.595C217.36 235.365 217.425 217.36 217.555 217.36C217.685 217.36 217.75 235.365 217.75 257.595C217.75 279.825 217.685 297.83 217.555 297.83Z" fill="#263238"/>
<path d="M234.975 280.02H226.915V289.12H234.975V280.02Z" fill="#F5F5F5"/>
<path d="M182.91 217.815H171.015V235.04H182.91V217.815Z" fill="#263238"/>
<path d="M182.91 280.93H171.015V298.155H182.91V280.93Z" fill="#263238"/>
<path d="M242.905 217.555C242.905 217.555 242.84 217.555 242.645 217.555C242.45 217.555 242.19 217.555 241.865 217.555C241.15 217.555 240.11 217.555 238.81 217.555C236.145 217.555 232.375 217.555 227.695 217.62C218.27 217.62 205.335 217.62 190.97 217.685C176.605 217.685 163.67 217.62 154.245 217.62C149.565 217.62 145.73 217.555 143.13 217.555C141.83 217.555 140.79 217.555 140.075 217.555C139.75 217.555 139.49 217.555 139.295 217.555C139.1 217.555 139.035 217.555 139.035 217.555C139.035 217.555 139.1 217.555 139.295 217.555C139.49 217.555 139.75 217.555 140.075 217.555C140.79 217.555 141.83 217.555 143.13 217.555C145.795 217.555 149.565 217.555 154.245 217.49C163.67 217.49 176.605 217.49 190.97 217.425C205.27 217.425 218.27 217.49 227.695 217.49C232.375 217.49 236.21 217.555 238.81 217.555C240.11 217.555 241.15 217.555 241.865 217.555C242.19 217.555 242.45 217.555 242.645 217.555C242.84 217.555 242.905 217.555 242.905 217.555Z" fill="#263238"/>
<path d="M63.3102 77.675C62.5302 77.48 58.9552 76.57 51.8702 74.88H51.9352C49.4002 76.505 46.0201 77.74 42.0552 77.805C40.1052 77.805 38.0252 77.545 35.9452 76.895C33.8652 76.245 31.8502 75.205 29.9652 73.71C26.2602 70.85 23.4002 66.3 22.7502 60.97C22.4252 58.37 22.6202 55.575 23.4652 52.975C24.3102 50.375 25.7402 47.84 27.6252 45.76C28.6002 44.655 29.7702 43.745 30.9402 42.9C31.5252 42.51 32.1752 42.12 32.8252 41.795L33.8002 41.34L34.2552 41.08L34.7752 40.885C37.4402 39.845 40.2352 39.455 42.9652 39.65C45.6952 39.845 48.2952 40.56 50.5702 41.795C52.8452 42.965 54.7951 44.59 56.3551 46.475C57.9151 48.295 59.0201 50.375 59.7351 52.455C60.4501 54.535 60.7752 56.615 60.7752 58.63C60.7752 62.595 59.5402 66.04 58.0452 68.51V68.38C61.3602 74.1 62.9851 77.025 63.3102 77.675C62.9202 77.025 61.2951 74.165 57.9801 68.51V68.445V68.38C59.4751 65.91 60.6452 62.53 60.6452 58.63C60.6452 56.68 60.2551 54.6 59.6051 52.585C58.8901 50.57 57.7851 48.49 56.2901 46.735C54.7952 44.915 52.8452 43.355 50.6352 42.185C48.4252 41.015 45.8252 40.3 43.1602 40.105C40.4952 39.91 37.7002 40.3 35.1002 41.34L34.5802 41.535L34.1252 41.795L33.1502 42.12C32.5002 42.445 31.9152 42.835 31.3302 43.225C30.1602 44.07 29.0552 44.98 28.0802 46.02C26.1952 48.1 24.7652 50.505 23.9852 53.105C23.2052 55.705 22.9452 58.37 23.2702 60.97C23.8552 66.17 26.7152 70.655 30.2902 73.45C32.1102 74.88 34.1252 75.92 36.1402 76.57C38.1552 77.22 40.2352 77.48 42.1202 77.48C46.0202 77.415 49.3352 76.18 51.8702 74.62H51.9352H52.0002C58.9552 76.505 62.5951 77.48 63.3102 77.675Z" fill="#263238"/>
<path d="M40.2999 50.2451L40.8849 59.8001C40.9499 60.5801 41.5349 61.2301 42.3149 61.2301C43.1599 61.2951 43.8749 60.6451 43.9399 59.8651L44.9799 50.3101C45.0449 49.5951 44.4599 48.9451 43.7449 48.9451H41.4049C40.7549 48.9451 40.2349 49.5301 40.2999 50.2451Z" fill="#FF6363"/>
<path d="M44.8503 66.5601C44.4603 67.7951 43.1603 68.4451 41.9253 68.0551C40.6903 67.6651 40.0403 66.3651 40.4303 65.1301C40.8203 63.8951 42.1203 63.2451 43.3553 63.6351C44.5903 64.0251 45.2403 65.3901 44.8503 66.5601Z" fill="#FF6363"/>
</svg>
