<svg width="14" height="14" viewBox="0 0 14 14" fill="none" xmlns="http://www.w3.org/2000/svg">
    <path d="M13.4 6.99998C13.4 10.5346 10.5346 13.4 7.00001 13.4C6.69073 13.4 6.44001 13.1493 6.44001 12.84C6.44001 12.5307 6.69073 12.28 7.00001 12.28C9.46581 12.28 11.6033 10.5733 12.1491 8.16869C12.6949 5.76405 11.5037 3.30183 9.27947 2.23733C7.05527 1.17284 4.39045 1.78955 2.86007 3.72297C1.32968 5.65638 1.34128 8.39161 2.88801 10.312V9.51198C2.88801 9.2027 3.13873 8.95198 3.44801 8.95198C3.75729 8.95198 4.00801 9.2027 4.00801 9.51198V11.592C4.00801 11.592 4.00801 11.648 4.00801 11.672C4.01164 11.7039 4.01164 11.7361 4.00801 11.768C3.99754 11.8089 3.97845 11.8471 3.95201 11.88C3.95201 11.88 3.95201 11.88 3.95201 11.936V11.936C3.92382 11.9692 3.89157 11.9988 3.85601 12.024C3.8324 12.0446 3.80531 12.0609 3.77601 12.072H3.68001C3.64305 12.0795 3.60496 12.0795 3.56801 12.072H1.40001C1.09073 12.072 0.840006 11.8213 0.840006 11.512C0.840006 11.2027 1.09073 10.952 1.40001 10.952H2.09601C1.1598 9.84464 0.631754 8.44969 0.600006 6.99998C0.600006 3.46535 3.46538 0.599976 7.00001 0.599976C10.5346 0.599976 13.4 3.46535 13.4 6.99998Z" fill="white"/>
</svg>