<svg width="100" height="100" viewBox="0 0 100 100" fill="none" xmlns="http://www.w3.org/2000/svg">
<path d="M77 12C76.7348 12 76.4804 12.1054 76.2929 12.2929C76.1054 12.4804 76 12.7348 76 13C76 13.2652 76.1054 13.5196 76.2929 13.7071C76.4804 13.8946 76.7348 14 77 14C77.2652 14 77.5196 13.8946 77.7071 13.7071C77.8946 13.5196 78 13.2652 78 13C78 12.7348 77.8946 12.4804 77.7071 12.2929C77.5196 12.1054 77.2652 12 77 12Z" fill="#9387FF"/>
<path d="M50 13C40.187 13 30.7759 16.8982 23.837 23.837C16.8982 30.7759 13 40.187 13 50C13 59.813 16.8982 69.2241 23.837 76.1629C30.7759 83.1018 40.187 87 50 87C59.813 87 69.2241 83.1018 76.1629 76.1629C83.1018 69.2241 87 59.813 87 50C87 40.187 83.1018 30.7759 76.1629 23.837C69.2241 16.8982 59.813 13 50 13Z" fill="#F1EFFF"/>
<path d="M83 11C81.9391 11 80.9217 11.4214 80.1716 12.1716C79.4214 12.9217 79 13.9391 79 15C79 16.0609 79.4214 17.0783 80.1716 17.8284C80.9217 18.5786 81.9391 19 83 19C84.0609 19 85.0783 18.5786 85.8284 17.8284C86.5786 17.0783 87 16.0609 87 15C87 13.9391 86.5786 12.9217 85.8284 12.1716C85.0783 11.4214 84.0609 11 83 11Z" fill="#9387FF"/>
<path d="M87 22C86.4696 22 85.9609 22.2107 85.5858 22.5858C85.2107 22.9609 85 23.4696 85 24C85 24.5304 85.2107 25.0391 85.5858 25.4142C85.9609 25.7893 86.4696 26 87 26C87.5304 26 88.0391 25.7893 88.4142 25.4142C88.7893 25.0391 89 24.5304 89 24C89 23.4696 88.7893 22.9609 88.4142 22.5858C88.0391 22.2107 87.5304 22 87 22Z" fill="#EAAA2E"/>
<path d="M81 74C80.4696 74 79.9609 74.2107 79.5858 74.5858C79.2107 74.9609 79 75.4696 79 76C79 76.5304 79.2107 77.0391 79.5858 77.4142C79.9609 77.7893 80.4696 78 81 78C81.5304 78 82.0391 77.7893 82.4142 77.4142C82.7893 77.0391 83 76.5304 83 76C83 75.4696 82.7893 74.9609 82.4142 74.5858C82.0391 74.2107 81.5304 74 81 74ZM15 59C13.9391 59 12.9217 59.4214 12.1716 60.1716C11.4214 60.9217 11 61.9391 11 63C11 64.0609 11.4214 65.0783 12.1716 65.8284C12.9217 66.5786 13.9391 67 15 67C16.0609 67 17.0783 66.5786 17.8284 65.8284C18.5786 65.0783 19 64.0609 19 63C19 61.9391 18.5786 60.9217 17.8284 60.1716C17.0783 59.4214 16.0609 59 15 59Z" fill="#9387FF"/>
<path d="M25 85C24.4696 85 23.9609 85.2107 23.5858 85.5858C23.2107 85.9609 23 86.4696 23 87C23 87.5304 23.2107 88.0391 23.5858 88.4142C23.9609 88.7893 24.4696 89 25 89C25.5304 89 26.0391 88.7893 26.4142 88.4142C26.7893 88.0391 27 87.5304 27 87C27 86.4696 26.7893 85.9609 26.4142 85.5858C26.0391 85.2107 25.5304 85 25 85Z" fill="#EAAA2E"/>
<path d="M18.5 49C17.837 49 17.2011 49.2634 16.7322 49.7322C16.2634 50.2011 16 50.837 16 51.5C16 52.163 16.2634 52.7989 16.7322 53.2678C17.2011 53.7366 17.837 54 18.5 54C19.163 54 19.7989 53.7366 20.2678 53.2678C20.7366 52.7989 21 52.163 21 51.5C21 50.837 20.7366 50.2011 20.2678 49.7322C19.7989 49.2634 19.163 49 18.5 49ZM79.5 32C79.1022 32 78.7206 32.158 78.4393 32.4393C78.158 32.7206 78 33.1022 78 33.5C78 33.8978 78.158 34.2794 78.4393 34.5607C78.7206 34.842 79.1022 35 79.5 35C79.8978 35 80.2794 34.842 80.5607 34.5607C80.842 34.2794 81 33.8978 81 33.5C81 33.1022 80.842 32.7206 80.5607 32.4393C80.2794 32.158 79.8978 32 79.5 32Z" fill="#EAAA2E"/>
<path d="M68.1209 70.5253C67.7159 68.3793 66.8409 67.1223 64.7789 66.4993C64.6889 66.4723 64.5689 66.4283 64.4339 66.3763C64.2779 66.3083 64.0799 66.2283 63.8479 66.1383C62.5989 65.6103 55.1749 62.8713 55.1749 62.8713C54.5629 62.7163 54.1649 62.2803 53.9349 61.7893C53.5549 60.9783 53.7019 58.8753 53.7019 58.8753C53.7019 58.8753 50.5979 59.9373 48.6609 60.2993C46.7609 60.4843 42.6779 58.0273 42.6779 58.0273C42.6779 58.0273 42.5819 61.0643 42.4529 61.7393C42.3509 62.2693 41.7809 62.7173 41.1689 62.8723L34.0449 65.4553C33.2569 65.6613 32.5009 65.9553 31.8359 66.3663C30.0429 67.4733 29.1349 69.1353 28.6729 70.5263C28.6729 70.5263 28.2039 73.8423 28.2229 73.9613C28.1789 74.4253 28.1329 74.9363 28.0859 75.4733C35.8499 80.7303 42.0859 82.2033 52.7849 81.7353C57.6459 81.5223 64.8839 79.1223 68.6759 77.2083C68.4749 72.9833 68.1209 70.5253 68.1209 70.5253Z" fill="#CE9065"/>
<path d="M68.2176 70.6442C67.8126 68.4982 66.9376 67.2412 64.8756 66.6182C64.7856 66.5912 64.6656 66.5472 64.5306 66.4952C64.3746 66.4272 64.1766 66.3472 63.9446 66.2572C63.2686 65.9712 56.6176 63.6502 54.4806 62.8542C51.5636 64.9092 50.2516 65.7012 48.3056 65.7012C46.2306 65.7012 45.0386 64.4452 42.1476 62.7012L38.9106 63.8962C38.9026 63.8922 38.8946 63.8872 38.8866 63.8832L38.5726 63.9662L34.1416 65.5732C33.3536 65.7792 32.5976 66.0732 31.9326 66.4842C30.1396 67.5912 29.2316 69.2532 28.7696 70.6442C28.7696 70.6442 28.3006 73.9602 28.3196 74.0792C28.2756 74.5432 28.2296 79.5232 28.1826 80.0602C35.9466 85.3172 42.1826 86.7902 52.8816 86.3222C57.7426 86.1092 64.9806 83.7092 68.7726 81.7952C68.5716 77.5702 68.2176 70.6442 68.2176 70.6442Z" fill="#BFC3FD"/>
<path d="M55.2012 73.2713C54.4672 72.3493 53.9552 71.2803 53.2102 70.3683C53.0302 70.1483 53.0172 69.8783 53.2102 69.6613C53.6302 69.1883 54.2132 68.9493 54.7852 68.7123C55.4152 68.4523 56.0252 68.1683 56.6622 67.9333C56.2602 66.2653 55.4672 64.7543 54.4752 63.3603C54.3442 63.1753 54.3702 62.9963 54.4702 62.8613C51.5602 64.9113 50.2492 65.7013 48.3042 65.7013C46.3212 65.7013 45.1282 64.5473 42.5032 62.9233C42.2582 64.4443 40.8782 66.4983 41.9012 67.9913C42.3052 68.5813 43.1352 68.7853 43.4052 69.5123C43.7862 70.5423 43.2162 72.0263 43.1882 73.0753C43.1332 75.2053 43.7192 76.8023 44.5142 78.7233C44.5492 78.8073 44.5552 78.8833 44.5462 78.9523C45.1832 80.2173 45.9012 81.5223 46.3812 82.8353C46.8012 83.9853 47.0532 85.1823 47.3392 86.3673C47.8512 86.3853 48.3782 86.3933 48.9122 86.3973C49.3892 84.1083 50.6972 81.8883 51.6062 79.7473C52.6022 77.4043 53.5372 75.2073 55.2012 73.2713Z" fill="#FDFCEF"/>
<path d="M35.5 83.8756C35.293 83.8756 35.125 83.7076 35.125 83.5006V80.5006C35.125 80.2936 35.293 80.1256 35.5 80.1256C35.707 80.1256 35.875 80.2936 35.875 80.5006V83.5006C35.875 83.7076 35.707 83.8756 35.5 83.8756ZM61.5 84.8756C61.293 84.8756 61.125 84.7076 61.125 84.5006V80.5006C61.125 80.2936 61.293 80.1256 61.5 80.1256C61.707 80.1256 61.875 80.2936 61.875 80.5006V84.5006C61.875 84.7076 61.707 84.8756 61.5 84.8756ZM53.832 61.9316C53.832 61.9316 56.196 62.9366 57.916 68.4616L53.832 69.9686L56.465 72.9836L48.685 86.5416C48.686 86.5416 52.438 72.7066 53.832 61.9316ZM42.546 61.9316C42.546 61.9316 40.183 62.9366 38.462 68.4616L42.546 69.9686L39.914 72.9836L47.561 86.5416C47.561 86.5416 43.941 72.7066 42.546 61.9316Z" fill="#8F96FE"/>
<path d="M60.4183 44.0006C60.3013 43.9926 60.1823 43.9916 60.0583 43.9916C59.0933 43.9446 58.8183 44.3296 58.8623 43.7326C58.9403 42.6726 58.7923 38.3716 58.7923 38.1546C58.7923 33.6986 54.1393 30.0636 48.0003 29.8626V29.8496C48.2863 29.8506 48.2483 29.8556 48.2083 29.8566C48.1693 29.8556 48.1313 29.8506 49.0003 29.8496V29.8626C42.2783 30.0646 37.6253 33.6986 37.6253 38.1546C37.6253 38.3716 37.4773 42.6716 37.5553 43.7326C37.5993 44.3296 37.3243 43.9446 36.3593 43.9916C36.2353 43.9916 36.1163 43.9926 35.9993 44.0006C34.9413 44.0716 34.0853 44.7446 33.9023 45.5786C34.0323 45.6576 34.5133 49.3096 35.2933 50.7486C35.7293 51.5516 36.4093 51.6636 37.1083 52.1826C37.4953 52.4696 37.5703 52.7946 37.6763 53.2236C38.0683 54.8136 39.1573 56.1656 40.3503 57.3196C40.9393 57.8896 44.8493 62.0576 48.2083 61.8466C51.5833 61.7196 55.4773 57.8896 56.0663 57.3196C57.2593 56.1656 58.3483 54.8136 58.7403 53.2236C58.8463 52.7936 58.9203 52.4696 59.3083 52.1826C60.0073 51.6636 60.6873 51.5526 61.1233 50.7486C61.9033 49.3096 62.3853 45.6576 62.5143 45.5786C62.3323 44.7446 61.4763 44.0706 60.4183 44.0006Z" fill="#DB9E71"/>
<path d="M48.2688 51.0585C48.9518 51.0585 49.6138 50.7605 50.0398 50.2615C50.0828 50.2115 50.0768 50.1355 50.0268 50.0925C49.9768 50.0495 49.9018 50.0545 49.8578 50.1045C49.5108 50.5015 48.9308 50.7295 48.2688 50.7295C47.6058 50.7295 47.0268 50.5015 46.6798 50.1045C46.6558 50.0775 46.6228 50.0635 46.5888 50.0635C46.5608 50.0635 46.5328 50.0735 46.5108 50.0925C46.4608 50.1355 46.4548 50.2115 46.4978 50.2615C46.9238 50.7605 47.5858 51.0585 48.2688 51.0585ZM46.0908 41.8325L46.5238 41.0005C44.6918 40.5715 42.5828 40.6395 40.8418 41.1795L41.3878 41.9905C42.8188 41.5185 44.5788 41.4585 46.0908 41.8325ZM55.2618 41.8325L55.6948 41.0005C53.8628 40.5715 51.7538 40.6395 50.0128 41.1795L50.5588 41.9905C51.9908 41.5185 53.7508 41.4585 55.2618 41.8325ZM43.4538 43.0065C43.0138 43.0065 42.6278 43.2975 42.4048 43.7375C42.4608 43.7205 42.5178 43.7085 42.5788 43.7085C42.9398 43.7085 43.2318 44.0355 43.2318 44.4375C43.2318 44.8405 42.9388 45.1665 42.5788 45.1665C42.4608 45.1665 42.3518 45.1285 42.2558 45.0675C42.4098 45.7285 42.8878 46.2095 43.4548 46.2095C44.1458 46.2095 44.7068 45.4925 44.7068 44.6075C44.7058 43.7245 44.1448 43.0065 43.4538 43.0065ZM53.0308 43.0065C52.6548 43.0065 52.3188 43.2195 52.0898 43.5545C52.1618 43.5245 52.2388 43.5055 52.3198 43.5055C52.6808 43.5055 52.9728 43.8325 52.9728 44.2345C52.9728 44.6375 52.6798 44.9635 52.3198 44.9635C52.0958 44.9635 51.8988 44.8375 51.7808 44.6455C51.7968 45.5125 52.3498 46.2085 53.0308 46.2085C53.7218 46.2085 54.2828 45.4915 54.2828 44.6065C54.2818 43.7245 53.7218 43.0065 53.0308 43.0065ZM53.5618 52.9145C53.6128 52.8725 53.6208 52.7975 53.5798 52.7465C53.5388 52.6955 53.4628 52.6865 53.4108 52.7285C52.2828 53.6275 50.4088 54.1435 48.2698 54.1435C46.1308 54.1435 44.2568 53.6275 43.1278 52.7275C43.1058 52.7095 43.0798 52.7015 43.0528 52.7015C43.0178 52.7015 42.9828 52.7165 42.9588 52.7465C42.9178 52.7975 42.9248 52.8735 42.9758 52.9155C44.2498 53.9565 46.2288 54.5785 48.2688 54.5785C50.3088 54.5775 52.2868 53.9565 53.5618 52.9145Z" fill="#512C2B"/>
<path d="M49.3237 86.9627C40.4167 86.9627 34.6677 85.1817 27.8037 80.5347C27.6537 80.4327 27.5707 80.2587 27.5857 80.0777C27.5947 79.9697 27.5997 79.6027 27.6067 79.0707C27.6397 76.8887 27.7067 72.3497 28.1887 70.5737C28.8427 68.1567 29.8007 67.2117 31.5707 66.1187C32.2327 65.7107 33.0217 65.3847 33.9157 65.1507L40.9957 62.5817C41.4987 62.4507 41.9017 62.1247 41.9587 61.8247C41.9877 61.6757 42.0437 61.2137 42.1117 59.7857C41.0797 59.0567 40.2397 58.3997 39.9987 58.1637C38.4387 56.6377 37.5457 55.2457 37.1887 53.7827C37.0797 53.3357 37.0327 53.1797 36.8067 53.0107C36.5997 52.8567 36.3937 52.7407 36.1977 52.6307C35.7147 52.3587 35.2157 52.0757 34.8517 51.3987C34.0137 49.8347 33.4007 46.8777 33.4007 45.9337C33.4007 45.8987 33.4047 45.8627 33.4117 45.8287C33.6467 44.7427 34.6967 43.9257 35.9637 43.8397C36.0917 43.8307 36.2217 43.8297 36.3567 43.8297C36.6257 43.8167 36.8587 43.8357 37.0417 43.8597C37.0057 42.6537 37.0777 40.0997 37.1097 38.9467C37.1177 38.6587 37.1237 38.4677 37.1237 38.4267C37.1237 33.8997 41.3727 30.2707 47.1997 29.6307C47.2827 29.5667 47.3867 29.5267 47.4987 29.5267C47.7767 29.5267 47.9967 29.5267 48.1687 29.5397C48.3907 29.5137 48.6327 29.5047 48.7957 29.6247C54.8617 30.2447 59.2907 33.8817 59.2907 38.4267C59.2907 38.4677 59.2957 38.6577 59.3047 38.9467C59.3377 40.1237 59.4107 42.7597 59.3717 43.8597C59.5557 43.8347 59.7897 43.8097 60.0817 43.8307C60.1887 43.8287 60.3227 43.8327 60.4497 43.8397C61.7177 43.9257 62.7667 44.7427 63.0017 45.8287C63.0087 45.8627 63.0127 45.8987 63.0127 45.9337C63.0127 47.0227 62.3627 49.9047 61.5627 51.3987C61.1987 52.0767 60.6997 52.3587 60.2167 52.6307C60.0197 52.7407 59.8137 52.8567 59.6067 53.0117C59.3807 53.1817 59.3337 53.3367 59.2307 53.7637C58.8687 55.2457 57.9757 56.6377 56.4157 58.1637C56.1607 58.4137 55.2587 59.1477 54.1737 59.9317C54.1717 60.7897 54.2487 61.4627 54.3867 61.7577C54.5277 62.0567 54.7997 62.4407 55.2977 62.5677C55.6517 62.6947 62.7967 65.3317 64.0427 65.8597C64.2677 65.9457 64.4707 66.0287 64.6317 66.0977C64.7347 66.1367 64.8437 66.1767 64.9257 66.2017C67.0467 66.8427 68.1497 68.1617 68.6127 70.6127C68.6167 70.6347 68.6197 70.6577 68.6207 70.6797C68.6207 70.6797 68.9747 77.6077 69.1747 81.8317C69.1837 82.0287 69.0767 82.2127 68.9007 82.3017C64.8587 84.3427 57.5547 86.6747 52.8067 86.8827C51.5907 86.9357 50.4327 86.9627 49.3237 86.9627ZM28.5947 79.8607C36.0047 84.8247 42.1427 86.3527 52.7617 85.8817C57.2667 85.6847 64.1587 83.5107 68.1597 81.5517C67.9657 77.4877 67.6497 71.2787 67.6227 70.7637C67.2267 68.6987 66.3857 67.6857 64.6337 67.1577C64.5347 67.1277 64.4027 67.0797 64.2547 67.0227C64.0837 66.9497 63.8917 66.8727 63.6667 66.7847C62.4277 66.2607 55.0747 63.5477 55.0007 63.5197C54.3667 63.3617 53.8087 62.8807 53.4807 62.1807C53.2547 61.6987 53.1517 60.8507 53.1757 59.6617C53.1787 59.5037 53.2567 59.3557 53.3857 59.2647C54.5997 58.4007 55.5157 57.6437 55.7157 57.4487C57.1367 56.0587 57.9437 54.8187 58.2537 53.5467C58.3687 53.0737 58.4817 52.6057 59.0067 52.2117C59.2517 52.0277 59.4937 51.8907 59.7257 51.7597C60.1487 51.5207 60.4547 51.3477 60.6817 50.9257C61.4357 49.5197 61.9907 46.9037 62.0137 45.9887C61.8507 45.3707 61.1757 44.8887 60.3837 44.8367C60.2787 44.8297 60.1697 44.8287 60.0577 44.8287C59.7267 44.8117 59.5097 44.8487 59.3327 44.8757C59.0997 44.9147 58.8077 44.9597 58.5707 44.7417C58.3267 44.5167 58.3507 44.1887 58.3627 44.0307C58.4237 43.1897 58.3377 40.1267 58.3057 38.9727C58.2967 38.6697 58.2917 38.4687 58.2917 38.4257C58.2917 34.2427 53.9097 30.9247 48.0137 30.5637C42.3417 30.9267 38.1247 34.2467 38.1247 38.4257C38.1247 38.4687 38.1197 38.6697 38.1107 38.9727C38.0787 40.1257 37.9927 43.1897 38.0537 44.0307C38.0657 44.1887 38.0897 44.5167 37.8447 44.7417C37.6097 44.9587 37.3177 44.9137 37.0827 44.8757C36.9057 44.8477 36.6857 44.8167 36.3837 44.8277C36.2467 44.8287 36.1387 44.8297 36.0327 44.8367C35.2417 44.8897 34.5667 45.3707 34.4037 45.9887C34.4277 46.8957 35.0217 49.5927 35.7357 50.9257C35.9617 51.3477 36.2677 51.5207 36.6917 51.7597C36.9237 51.8907 37.1657 52.0287 37.4097 52.2107C37.9337 52.6057 38.0477 53.0717 38.1577 53.5237C38.4737 54.8197 39.2807 56.0597 40.7017 57.4497C40.8977 57.6417 41.7747 58.3307 42.9127 59.1257C43.0537 59.2247 43.1337 59.3877 43.1257 59.5587C43.0677 60.8597 43.0057 61.6857 42.9437 62.0137C42.7897 62.8167 42.0027 63.3577 41.2917 63.5367L34.2157 66.1047C33.3737 66.3277 32.6767 66.6147 32.0987 66.9707C30.4937 67.9607 29.7297 68.7167 29.1557 70.8357C28.7077 72.4907 28.6387 77.1127 28.6097 79.0857C28.6037 79.4057 28.5997 79.6707 28.5947 79.8607Z" fill="#252D36"/>
<path d="M60.4798 48.8805L59.8828 48.8145L60.0838 47.0355L59.0728 47.4735L58.8348 46.9225L60.3208 46.2785C60.4178 46.2355 60.5318 46.2485 60.6178 46.3125C60.7038 46.3755 60.7498 46.4805 60.7378 46.5865L60.4798 48.8805ZM36.2618 48.5375L36.0038 46.2435C35.9918 46.1375 36.0378 46.0325 36.1238 45.9695C36.2098 45.9045 36.3238 45.8925 36.4218 45.9355L37.9078 46.5795L37.6698 47.1305L36.6588 46.6925L36.8598 48.4715L36.2618 48.5375Z" fill="#895D3D"/>
<path d="M37.6024 52.9806C37.6014 52.9806 37.6004 52.9806 37.5984 52.9806C37.4884 52.9786 37.4004 52.8866 37.4024 52.7766L37.5674 44.1296C37.5694 44.0206 37.6584 43.9336 37.7674 43.9336C37.7684 43.9336 37.7694 43.9336 37.7714 43.9336C37.8814 43.9356 37.9694 44.0276 37.9674 44.1376L37.8024 52.7846C37.7994 52.8946 37.7104 52.9806 37.6024 52.9806Z" fill="#252D36"/>
<path d="M58.9812 52.9806C58.8722 52.9806 58.7832 52.8936 58.7812 52.7846L58.6172 44.1376C58.6152 44.0276 58.7032 43.9356 58.8132 43.9336C58.8142 43.9336 58.8162 43.9336 58.8172 43.9336C58.9262 43.9336 59.0152 44.0206 59.0172 44.1296L59.1812 52.7766C59.1832 52.8866 59.0952 52.9786 58.9852 52.9806C58.9832 52.9806 58.9822 52.9806 58.9812 52.9806Z" fill="#252D36"/>
<path d="M63.0807 36.3237C60.8217 36.4887 59.4027 33.7817 57.9297 31.7847C54.3367 26.9167 48.0477 25.4057 42.8147 28.2107C41.4217 28.9577 40.3057 29.7557 39.9837 30.4797C37.3377 31.6047 35.8527 35.0417 35.2697 38.3467C34.5897 42.2027 37.8567 48.1707 38.0507 44.8497C38.1907 42.4527 39.0857 39.1027 39.9917 37.0187C40.3987 36.0827 40.7687 35.0897 41.0347 34.0637C41.3467 36.5557 44.6017 38.9267 46.6417 38.9487C46.8597 38.9507 46.9597 38.0907 46.9007 36.9177C47.4337 37.8737 48.1917 38.6757 49.0367 39.2667C50.3637 40.1957 51.8917 40.6617 53.4157 40.9887C52.8757 40.7627 52.5567 40.0967 52.4577 39.4407C52.4057 39.0997 52.4017 38.7547 52.4067 38.4077C53.7377 39.3287 55.1657 40.0077 56.7197 40.0657C56.8987 40.0727 57.0797 40.0667 57.2597 40.0557C58.0667 41.7237 58.3437 43.7297 58.4267 45.1587C58.6207 48.4797 61.0937 42.9327 60.4137 39.0767C60.4087 39.0487 60.4027 39.0197 60.3977 38.9907C61.4157 38.3497 62.3447 37.4427 63.0807 36.3237ZM41.3717 32.2907C41.3767 32.2447 41.3817 32.1977 41.3867 32.1517C41.4037 32.1577 41.4197 32.1637 41.4377 32.1687C41.4127 32.2087 41.3937 32.2497 41.3717 32.2907Z" fill="#5E2E2E"/>
<path d="M48.3736 62.3804C46.3346 62.3804 42.9126 59.7694 42.7616 59.6524C42.6526 59.5684 42.6316 59.4114 42.7156 59.3014C42.8006 59.1914 42.9566 59.1704 43.0666 59.2554C43.1036 59.2834 46.7756 62.0844 48.5636 61.8684C50.3916 61.6504 53.3246 59.4914 53.3536 59.4694C53.4646 59.3884 53.6226 59.4104 53.7036 59.5224C53.7866 59.6324 53.7626 59.7904 53.6516 59.8724C53.5266 59.9644 50.5826 62.1324 48.6236 62.3654C48.5416 62.3754 48.4586 62.3804 48.3736 62.3804Z" fill="#252D36"/>
<path d="M29 25H30V37H29V25Z" fill="#252D36"/>
<path d="M31.4053 36.6696C31.2173 35.9546 30.6313 35.3696 29.9143 35.1876C28.5033 34.8296 27.2393 35.8866 27.2393 37.2376C27.2393 37.5716 27.3233 37.8836 27.4613 38.1656H27.4443L29.3403 42.0086L31.0973 38.4476C31.4363 37.9636 31.5813 37.3356 31.4053 36.6696Z" fill="#ECAD6F"/>
<path d="M29.3412 42.5092C29.1512 42.5092 28.9772 42.4012 28.8932 42.2312L26.9972 38.3882C26.9762 38.3452 26.9612 38.3012 26.9542 38.2562C26.8122 37.9272 26.7412 37.5852 26.7412 37.2382C26.7412 36.4242 27.1102 35.6702 27.7532 35.1692C28.3972 34.6672 29.2282 34.4962 30.0392 34.7032C30.9292 34.9292 31.6562 35.6502 31.8912 36.5432C32.0942 37.3132 31.9592 38.0912 31.5112 38.7342L29.7922 42.2302C29.7052 42.4002 29.5312 42.5092 29.3412 42.5092ZM27.9502 38.0622L29.3412 40.8792L30.6502 38.2272C30.9652 37.7642 31.0482 37.2802 30.9222 36.7972C30.7802 36.2602 30.3262 35.8082 29.7912 35.6722C29.2792 35.5402 28.7712 35.6432 28.3662 35.9582C27.9682 36.2682 27.7402 36.7342 27.7402 37.2382C27.7402 37.4762 27.7982 37.7152 27.9112 37.9452C27.9292 37.9832 27.9422 38.0212 27.9502 38.0622Z" fill="#252D36"/>
<path d="M48 35.5008C41.79 35.5008 37.93 34.2148 37.531 33.2858L37.5 33.2138V25.1738H58.5V33.2388L58.469 33.2858C58.07 34.2148 54.21 35.5008 48 35.5008Z" fill="#BFC3FD"/>
<path d="M58 25.6738V33.1068C57.596 33.7968 53.966 35.0008 48 35.0008C42.029 35.0008 38.399 33.7948 38 33.1068V25.6738H58ZM59 24.6738H37V33.4838H37.072C37.68 34.8988 42.339 36.0008 48 36.0008C53.661 36.0008 58.32 34.8988 58.928 33.4838H59V24.6738Z" fill="#252D36"/>
<path d="M28.9824 25.3036L48.1644 19.2266L67.3444 25.3016L48.1644 31.3796L28.9824 25.3036Z" fill="#99A0FF"/>
<path d="M48.1632 19.7502L65.6882 25.3022L48.1622 30.8552L30.6372 25.3042L48.1632 19.7502ZM48.1632 18.7012L27.3262 25.3032L48.1632 31.9032L69.0002 25.3012L48.1632 18.7012Z" fill="#252D36"/>
</svg>
