<svg width="18" height="18" viewBox="0 0 18 18" fill="none" xmlns="http://www.w3.org/2000/svg">
    <path fill-rule="evenodd" clip-rule="evenodd" d="M16.79 2.20718L14.52 4.47718C15.3494 4.95157 16.1127 5.53325 16.79 6.20718C16.927 6.33743 17.0045 6.51817 17.0045 6.70718C17.0045 6.89619 16.927 7.07692 16.79 7.20718C16.6627 7.34194 16.4853 7.41797 16.3 7.41718C16.1119 7.4172 15.9317 7.34152 15.8 7.20718C15.1173 6.52617 14.335 5.95295 13.48 5.50718L12.18 6.80718C13.0732 7.19429 13.8869 7.74357 14.58 8.42718C14.8546 8.70397 14.8546 9.15038 14.58 9.42718C14.4444 9.55427 14.2659 9.62567 14.08 9.62718C13.8968 9.6272 13.7209 9.5554 13.59 9.42718C12.8865 8.73533 12.0351 8.21219 11.1 7.89718L9.52 9.47718C10.5537 9.57047 11.5243 10.0152 12.27 10.7372C12.407 10.8674 12.4845 11.0482 12.4845 11.2372C12.4845 11.4262 12.407 11.6069 12.27 11.7372C12.1427 11.8719 11.9653 11.948 11.78 11.9472C11.5919 11.9472 11.4117 11.8715 11.28 11.7372C10.407 10.9037 9.14406 10.6226 8 11.0072L2.2 16.7972C2.06832 16.9315 1.88811 17.0072 1.7 17.0072C1.51614 17.0106 1.33897 16.9383 1.21 16.8072C1.07303 16.6769 0.995499 16.4962 0.995499 16.3072C0.995499 16.1182 1.07303 15.9374 1.21 15.8072L5.58 11.4272L7.24 9.77718L9.47 7.54718L10.7 6.31718L12.1 4.90718L13.19 3.80718L15.79 1.20718C15.9203 1.07021 16.101 0.992676 16.29 0.992676C16.479 0.992676 16.6597 1.07021 16.79 1.20718C16.927 1.33743 17.0045 1.51817 17.0045 1.70718C17.0045 1.89619 16.927 2.07692 16.79 2.20718ZM2.2 7.20718C3.99746 5.39433 6.44711 4.37844 9 4.38718C9.5093 4.39029 10.0176 4.43376 10.52 4.51718L11.7 3.33718C7.93996 2.36117 3.94457 3.45809 1.21 6.21718C1.07303 6.34743 0.995499 6.52817 0.995499 6.71718C0.995499 6.90619 1.07303 7.08693 1.21 7.21718C1.48828 7.48242 1.92713 7.47799 2.2 7.20718ZM8.89999 6.12716C6.84106 6.14867 4.87301 6.97827 3.41999 8.43716L3.40999 8.42716C3.13385 8.70331 3.13385 9.15102 3.40999 9.42716C3.68613 9.70331 4.13385 9.70331 4.40999 9.42716C5.20115 8.63247 6.18752 8.05996 7.26999 7.76716L8.89999 6.12716ZM8.05335 13.9341C8.04886 13.3994 8.46595 12.9557 9 12.9272C9.28825 12.9118 9.56909 13.0217 9.77031 13.2287C9.97153 13.4356 10.0735 13.7195 10.05 14.0072C10.0064 14.5402 9.55122 14.9446 9.01676 14.9251C8.48231 14.9055 8.05784 14.4689 8.05335 13.9341Z" fill="#EF7E27"/>
</svg>
